<svg width="500" height="500" viewBox="0 0 500 500" fill="none" xmlns="http://www.w3.org/2000/svg">
<path d="M451.124 71.4175C399.126 21.5201 325.066 35.2158 284.376 72.9419C254.644 100.549 207.807 140.58 171.545 138.839C135.596 137.099 94.4967 112.168 49.8328 131.373C5.75699 150.291 -6.28223 212.863 13.6431 260.708C33.6405 308.721 106.608 347.743 194.892 384.137C227.324 397.721 262.191 404.535 297.351 404.158C297.351 404.158 377.268 403.33 407.3 384.113C430.815 369.037 440.885 359.134 466.308 320.76C485.513 291.712 498.381 250.877 499.821 211.315C501.634 162.978 489.967 108.699 451.124 71.4175Z" fill="#92E3A9"/>
<path opacity="0.8" d="M451.124 71.4175C399.126 21.5201 325.066 35.2158 284.376 72.9419C254.644 100.549 207.807 140.58 171.545 138.839C135.596 137.099 94.4967 112.168 49.8328 131.373C5.75699 150.291 -6.28223 212.863 13.6431 260.708C33.6405 308.721 106.608 347.743 194.892 384.137C227.324 397.721 262.191 404.535 297.351 404.158C297.351 404.158 377.268 403.33 407.3 384.113C430.815 369.037 440.885 359.134 466.308 320.76C485.513 291.712 498.381 250.877 499.821 211.315C501.634 162.978 489.967 108.699 451.124 71.4175Z" fill="white"/>
<path d="M241.656 446.89C365.721 446.89 466.296 440.909 466.296 433.53C466.296 426.152 365.721 420.171 241.656 420.171C117.591 420.171 17.0161 426.152 17.0161 433.53C17.0161 440.909 117.591 446.89 241.656 446.89Z" fill="#92E3A9"/>
<path opacity="0.6" d="M241.656 446.89C365.721 446.89 466.296 440.909 466.296 433.53C466.296 426.152 365.721 420.171 241.656 420.171C117.591 420.171 17.0161 426.152 17.0161 433.53C17.0161 440.909 117.591 446.89 241.656 446.89Z" fill="white"/>
<path d="M58.1869 150.471H432.267C435.597 150.471 438.79 151.793 441.145 154.148C443.5 156.503 444.822 159.696 444.822 163.026V409.572H45.6436V163.026C45.6436 159.698 46.9647 156.507 49.3167 154.152C51.6687 151.798 54.8591 150.474 58.1869 150.471Z" fill="#92E3A9" stroke="#263238" stroke-width="0.920603" stroke-miterlimit="10"/>
<path d="M428.63 170.72H61.8359V378.004H428.63V170.72Z" fill="white"/>
<g style="mix-blend-mode:multiply" opacity="0.4">
<path d="M428.63 378.003V201.064L125.225 378.003H428.63Z" fill="#92E3A9"/>
</g>
<path d="M428.63 170.72H61.8359V378.004H428.63V170.72Z" stroke="#263238" stroke-width="0.690452" stroke-miterlimit="10"/>
<path d="M383.306 397.101H108.973V410.617H383.306V397.101Z" fill="#92E3A9" stroke="#263238" stroke-width="0.691688" stroke-miterlimit="10"/>
<path d="M383.306 403.618H108.973V410.628H383.306V403.618Z" fill="#92E3A9" stroke="#263238" stroke-width="0.691688" stroke-miterlimit="10"/>
<path d="M13.3552 418.635C13.3552 418.635 17.8684 424.144 31.36 428.645H460.907C460.907 428.645 470.918 426.137 475.431 419.127L13.3552 418.635Z" fill="#92E3A9" stroke="#263238" stroke-width="0.920603" stroke-miterlimit="10"/>
<path d="M473.162 408.768H15.6837C13.8939 408.768 12.4429 410.219 12.4429 412.008V416.054C12.4429 417.843 13.8939 419.294 15.6837 419.294H473.162C474.952 419.294 476.403 417.843 476.403 416.054V412.008C476.403 410.219 474.952 408.768 473.162 408.768Z" fill="#92E3A9" stroke="#263238" stroke-width="0.920603" stroke-miterlimit="10"/>
<path d="M245.149 161.814C247.085 161.814 248.654 160.244 248.654 158.309C248.654 156.373 247.085 154.804 245.149 154.804C243.213 154.804 241.644 156.373 241.644 158.309C241.644 160.244 243.213 161.814 245.149 161.814Z" fill="#263238"/>
<path d="M198.841 154.804H111.217C110.987 154.804 110.759 154.758 110.547 154.67C110.334 154.582 110.141 154.453 109.978 154.29C109.815 154.128 109.686 153.935 109.598 153.722C109.51 153.509 109.465 153.281 109.465 153.051V153.051C109.465 152.821 109.51 152.593 109.598 152.381C109.686 152.168 109.815 151.975 109.978 151.812C110.141 151.649 110.334 151.52 110.547 151.432C110.759 151.344 110.987 151.299 111.217 151.299H198.841C199.305 151.302 199.748 151.488 200.076 151.816C200.404 152.144 200.59 152.587 200.593 153.051V153.051C200.593 153.516 200.409 153.962 200.08 154.29C199.751 154.619 199.306 154.804 198.841 154.804V154.804Z" fill="#92E3A9" stroke="#263238" stroke-width="0.691688" stroke-miterlimit="10"/>
<path d="M377.557 154.804H289.933C289.468 154.804 289.023 154.619 288.694 154.29C288.365 153.962 288.181 153.516 288.181 153.051V153.051C288.184 152.587 288.369 152.144 288.697 151.816C289.025 151.488 289.469 151.302 289.933 151.299H377.557C378.021 151.299 378.467 151.483 378.796 151.812C379.124 152.141 379.309 152.587 379.309 153.051V153.051C379.309 153.516 379.124 153.962 378.796 154.29C378.467 154.619 378.021 154.804 377.557 154.804V154.804Z" fill="#92E3A9" stroke="#263238" stroke-width="0.691688" stroke-miterlimit="10"/>
<path d="M441.39 223.39C441.124 223.39 440.87 223.286 440.681 223.099C440.492 222.913 440.385 222.659 440.381 222.394V193.358C440.384 193.092 440.492 192.837 440.68 192.649C440.869 192.46 441.123 192.353 441.39 192.35C441.655 192.353 441.908 192.461 442.095 192.65C442.281 192.838 442.386 193.093 442.386 193.358V222.394C442.386 222.658 442.281 222.912 442.094 223.099C441.907 223.285 441.654 223.39 441.39 223.39V223.39Z" fill="#92E3A9" stroke="#263238" stroke-width="0.691688" stroke-miterlimit="10"/>
<path d="M49.4008 223.39C49.27 223.39 49.1404 223.365 49.0195 223.315C48.8987 223.264 48.7888 223.191 48.6963 223.099C48.6038 223.006 48.5304 222.896 48.4804 222.775C48.4303 222.655 48.4045 222.525 48.4045 222.394V193.358C48.4045 193.093 48.5091 192.838 48.6956 192.65C48.8821 192.461 49.1355 192.353 49.4008 192.35V192.35C49.6672 192.353 49.9219 192.46 50.1103 192.649C50.2987 192.837 50.406 193.092 50.4091 193.358V222.394C50.4059 222.659 50.2983 222.913 50.1095 223.099C49.9208 223.286 49.6661 223.39 49.4008 223.39V223.39Z" fill="#92E3A9" stroke="#263238" stroke-width="0.691688" stroke-miterlimit="10"/>
<path d="M323.758 231C325.463 229.8 327.299 227.663 327.359 225.407C327.382 224.878 327.293 224.351 327.1 223.858C326.906 223.365 326.612 222.919 326.235 222.547C325.859 222.175 325.409 221.886 324.914 221.698C324.419 221.511 323.89 221.429 323.362 221.458C320.181 221.746 317.36 226.739 316.688 229.512C316.688 229.752 316.208 233.605 316.268 233.593C316.328 233.581 321.742 232.429 323.758 231Z" fill="#263238"/>
<path d="M296.283 291.184C296.207 290.756 296.041 290.349 295.795 289.989C295.55 289.63 295.232 289.327 294.861 289.1C294.49 288.873 294.075 288.728 293.643 288.673C293.212 288.618 292.774 288.656 292.358 288.783C289.957 289.612 288.601 294.113 288.637 296.441C288.637 296.585 288.865 298.338 288.997 299.226C288.721 298.542 288.457 297.846 288.181 297.126C287.785 296.081 287.4 294.977 286.98 293.897L286.44 292.18C286.248 291.604 286.128 290.98 285.972 290.452C285.756 289.588 285.576 288.687 285.396 287.787C287.347 287.245 289.202 286.403 290.893 285.29C292.202 284.09 293.534 282.326 293.402 280.489C293.386 280.058 293.28 279.634 293.09 279.247C292.899 278.859 292.629 278.516 292.298 278.239C291.966 277.963 291.579 277.76 291.164 277.643C290.748 277.526 290.312 277.498 289.885 277.56C287.328 278.017 285.36 282.266 285.084 284.57C285.084 284.642 285.084 285.134 285.084 285.771C284.94 284.882 284.784 284.006 284.664 283.106C284.304 280.561 284.028 277.957 283.739 275.352C283.679 274.8 283.607 274.26 283.547 273.719C285.554 273.157 287.464 272.295 289.213 271.163C290.521 269.962 291.854 268.198 291.722 266.361C291.704 265.93 291.596 265.508 291.406 265.121C291.215 264.735 290.945 264.392 290.613 264.116C290.282 263.84 289.896 263.637 289.481 263.519C289.067 263.401 288.632 263.372 288.205 263.433C285.648 263.889 283.679 268.138 283.403 270.442C283.403 270.527 283.403 271.115 283.403 271.763C283.223 270.358 283.031 268.942 282.791 267.55C282.399 265.16 281.849 262.798 281.147 260.48C281.471 260.384 285.516 259.159 286.992 257.875C288.289 256.675 289.633 254.91 289.489 253.074C289.473 252.642 289.367 252.219 289.177 251.831C288.986 251.444 288.716 251.1 288.385 250.824C288.053 250.548 287.666 250.344 287.251 250.227C286.835 250.11 286.399 250.082 285.972 250.145C283.415 250.601 281.447 254.85 281.171 257.155C281.171 257.311 281.099 259.448 281.111 260.204C281.106 260.176 281.106 260.148 281.111 260.12C280.356 257.864 279.405 255.679 278.266 253.59C277.262 251.717 276.148 249.905 274.929 248.165C273.813 246.532 272.696 245.116 271.688 243.867C271.148 243.195 270.632 242.583 270.152 242.031C270.152 242.031 269.288 239.018 269.204 238.826C268.279 236.701 265.242 233.137 262.65 233.401C262.222 233.454 261.811 233.598 261.443 233.822C261.074 234.045 260.758 234.344 260.513 234.699C260.268 235.054 260.101 235.456 260.022 235.88C259.944 236.303 259.956 236.739 260.057 237.158C260.417 238.958 262.194 240.338 263.766 241.095C265.766 241.723 267.852 242.035 269.948 242.019C270.44 242.619 270.956 243.219 271.508 243.963C272.48 245.236 273.573 246.676 274.641 248.321C274.929 248.765 275.217 249.245 275.505 249.701C274.857 249.029 273.957 248.105 273.849 248.033C272.048 246.568 267.715 244.804 265.543 246.22C265.187 246.467 264.888 246.785 264.664 247.155C264.44 247.525 264.296 247.937 264.242 248.366C264.187 248.795 264.224 249.231 264.349 249.645C264.473 250.059 264.684 250.442 264.966 250.769C265.621 251.415 266.406 251.914 267.27 252.23C268.133 252.547 269.055 252.675 269.972 252.606C271.772 252.606 275.181 250.925 275.973 250.565C276.61 251.597 277.174 252.678 277.81 253.842C278.889 255.927 279.781 258.105 280.475 260.348C280.475 260.48 280.475 260.624 280.571 260.756C280.307 260.36 278.71 258.355 278.578 258.199C276.946 256.543 272.829 254.31 270.512 255.487C270.132 255.692 269.799 255.975 269.535 256.317C269.272 256.66 269.083 257.054 268.982 257.474C268.882 257.895 268.871 258.331 268.95 258.756C269.03 259.181 269.198 259.584 269.444 259.94C270.428 261.476 272.588 262.136 274.317 262.268C276.309 262.424 280.439 260.9 280.595 260.84C281.222 263.099 281.703 265.397 282.035 267.718C282.287 269.434 282.479 271.175 282.647 272.939C282.299 272.435 280.799 270.539 280.679 270.418C279.046 268.762 274.929 266.541 272.612 267.706C272.232 267.911 271.899 268.194 271.636 268.537C271.372 268.879 271.184 269.273 271.083 269.694C270.982 270.114 270.971 270.551 271.051 270.975C271.13 271.4 271.298 271.804 271.544 272.159C272.528 273.707 274.689 274.356 276.417 274.488C278.362 274.644 282.323 273.203 282.659 273.083C282.743 273.875 282.815 274.68 282.887 275.484C283.127 278.101 283.343 280.717 283.643 283.298C283.751 284.186 283.884 285.062 284.016 285.939C283.463 285.206 282.419 283.898 282.323 283.79C280.691 282.146 276.574 279.913 274.257 281.089C273.876 281.292 273.542 281.573 273.277 281.914C273.013 282.255 272.823 282.648 272.721 283.068C272.619 283.487 272.607 283.923 272.685 284.348C272.764 284.772 272.931 285.175 273.177 285.531C274.173 287.079 276.333 287.727 278.062 287.859C280.119 287.727 282.144 287.278 284.064 286.527C284.292 287.991 284.544 289.432 284.868 290.836C285.024 291.448 285.144 292.036 285.324 292.636C285.504 293.237 285.648 293.837 285.816 294.365C286.2 295.565 286.548 296.61 286.932 297.69C287.124 298.23 287.316 298.734 287.508 299.262C287.064 298.434 286.308 297.138 286.236 297.03C284.88 295.157 281.147 292.324 278.674 293.129C278.268 293.274 277.896 293.503 277.584 293.802C277.272 294.101 277.027 294.461 276.864 294.861C276.701 295.261 276.624 295.691 276.638 296.122C276.652 296.554 276.757 296.977 276.946 297.366C277.69 299.046 279.73 300.018 281.411 300.415C283.091 300.811 287.28 300.066 287.761 299.97C288.241 301.255 288.721 302.503 289.177 303.667C290.653 307.34 292.01 310.341 292.994 312.43C293.978 314.518 294.59 315.695 294.59 315.695C294.704 315.899 294.894 316.051 295.118 316.118C295.342 316.185 295.583 316.162 295.791 316.055C295.993 315.938 296.142 315.749 296.209 315.526C296.276 315.303 296.255 315.063 296.151 314.854C296.151 314.854 295.539 313.726 294.518 311.674C293.498 309.621 292.118 306.692 290.557 303.091C290.113 302.047 289.657 300.943 289.201 299.802C289.669 299.574 293.33 297.81 294.554 296.345C295.779 294.881 296.691 292.973 296.283 291.184Z" fill="#263238"/>
<path d="M275.973 250.061C275.973 250.061 279.85 247.66 280.967 245.968C281.927 244.516 282.731 242.367 282.167 240.687C282.037 240.276 281.821 239.897 281.535 239.574C281.249 239.252 280.897 238.993 280.505 238.816C280.112 238.638 279.686 238.545 279.255 238.543C278.824 238.54 278.397 238.629 278.002 238.802C275.601 239.906 274.881 244.528 275.181 246.832C275.181 247.024 275.973 250.085 275.973 250.061Z" fill="#263238"/>
<path d="M335.053 231C337.058 232.489 342.555 233.593 342.555 233.593C342.555 233.593 342.195 229.752 342.135 229.512C341.499 226.739 338.654 221.746 335.473 221.458C334.944 221.427 334.415 221.507 333.919 221.694C333.424 221.881 332.973 222.17 332.596 222.542C332.219 222.915 331.925 223.362 331.732 223.856C331.539 224.349 331.452 224.877 331.476 225.407C331.5 227.603 333.337 229.68 335.053 231Z" fill="#263238"/>
<path d="M357.859 284.234C354.679 284.366 351.57 289.204 350.801 291.952C350.801 292.108 350.465 293.921 350.297 295.073C350.297 294.377 350.297 293.717 350.297 293.009C350.297 291.604 350.225 290.2 350.165 288.7C350.165 287.979 350.069 287.247 350.009 286.503C349.949 285.759 349.841 284.991 349.757 284.234C349.529 282.47 349.217 280.705 348.857 278.917C350.057 278.917 354.45 278.785 356.383 277.897C358.315 277.008 360.524 275.328 361.004 273.095C361.138 272.582 361.162 272.046 361.073 271.523C360.985 271 360.787 270.501 360.492 270.06C360.197 269.619 359.812 269.245 359.363 268.964C358.913 268.682 358.409 268.499 357.883 268.426C354.715 268.054 350.91 272.375 349.733 274.98C349.661 275.136 349.025 277.092 348.701 278.173C348.473 277.104 348.257 276.036 348.005 274.968C347.249 271.871 346.384 268.762 345.544 265.653C345.28 264.705 345.04 263.745 344.788 262.797C345.472 262.797 350.465 262.797 352.578 261.764C354.691 260.732 356.719 259.196 357.199 256.963C357.331 256.45 357.353 255.914 357.264 255.392C357.175 254.869 356.977 254.372 356.682 253.931C356.388 253.49 356.004 253.117 355.555 252.835C355.106 252.553 354.603 252.368 354.078 252.294C350.91 251.934 347.116 256.255 345.94 258.848C345.844 259.04 344.932 261.86 344.74 262.593C344.188 260.492 343.66 258.403 343.227 256.315C342.629 253.508 342.216 250.665 341.991 247.805C342.363 247.805 347.645 247.805 349.829 246.772C351.762 245.884 353.97 244.204 354.462 241.971C354.592 241.457 354.613 240.921 354.522 240.399C354.431 239.876 354.232 239.379 353.936 238.938C353.641 238.498 353.256 238.125 352.807 237.843C352.358 237.561 351.855 237.377 351.33 237.302C348.161 236.942 344.368 241.263 343.191 243.856C343.095 244.06 342.123 247.096 341.991 247.649C341.991 247.493 341.991 247.312 341.991 247.144C341.831 244.265 341.927 241.377 342.279 238.514C342.459 236.93 342.711 235.417 342.999 233.965C344.032 234.073 348.617 234.481 350.717 233.773C352.818 233.065 355.123 231.684 355.843 229.548C356.028 229.052 356.107 228.522 356.074 227.994C356.042 227.466 355.899 226.95 355.654 226.481C355.41 226.011 355.07 225.598 354.655 225.268C354.241 224.938 353.763 224.699 353.25 224.566C350.129 223.858 345.88 227.735 344.428 230.184C344.356 230.316 343.696 231.756 343.227 232.825C343.359 232.164 343.492 231.48 343.636 230.856C344.176 228.455 344.836 226.379 345.388 224.506C345.724 223.45 346.048 222.49 346.36 221.602C347.405 221.182 351.582 219.465 353.094 217.893C354.606 216.32 356.035 214.004 355.687 211.783C355.625 211.256 355.452 210.749 355.18 210.294C354.909 209.838 354.544 209.446 354.11 209.141C353.676 208.836 353.183 208.626 352.662 208.525C352.142 208.424 351.606 208.434 351.09 208.554C348.005 209.358 346.024 214.76 345.856 217.605C345.856 217.845 346.072 221.722 346.12 221.698H346.18C345.868 222.55 345.532 223.462 345.184 224.47C344.572 226.331 343.888 228.443 343.299 230.796C342.634 233.32 342.117 235.881 341.751 238.466C341.332 241.359 341.172 244.283 341.271 247.204V247.312C340.959 246.436 339.999 244 339.903 243.832C338.558 241.311 334.477 237.254 331.344 237.83C330.643 237.956 329.997 238.295 329.496 238.802C328.997 238.293 328.35 237.953 327.647 237.83C324.514 237.266 320.445 241.323 319.101 243.832C319.005 244 318.033 246.436 317.721 247.312C317.721 247.312 317.721 247.24 317.721 247.204C317.816 244.283 317.651 241.359 317.228 238.466C316.86 235.883 316.347 233.322 315.692 230.796C315.104 228.395 314.42 226.331 313.796 224.47C313.447 223.462 313.123 222.55 312.799 221.698H312.859C312.859 221.698 313.135 217.845 313.123 217.605C312.967 214.76 310.975 209.358 307.89 208.554C307.374 208.434 306.838 208.424 306.317 208.525C305.797 208.626 305.303 208.836 304.87 209.141C304.436 209.446 304.071 209.838 303.799 210.294C303.528 210.749 303.355 211.256 303.293 211.783C302.945 214.004 304.409 216.368 305.885 217.893C307.362 219.417 311.575 221.182 312.619 221.602C312.931 222.49 313.255 223.45 313.604 224.506C314.18 226.379 314.804 228.503 315.344 230.856C315.488 231.48 315.62 232.164 315.764 232.825C315.296 231.756 314.648 230.316 314.564 230.184C313.111 227.783 308.862 223.858 305.753 224.566C305.24 224.698 304.76 224.936 304.345 225.265C303.93 225.595 303.589 226.008 303.344 226.478C303.099 226.948 302.957 227.464 302.925 227.993C302.893 228.522 302.974 229.052 303.161 229.548C303.881 231.684 306.258 233.149 308.274 233.773C310.291 234.397 314.96 234.073 316.004 233.965C316.28 235.417 316.532 236.93 316.712 238.514C317.069 241.376 317.169 244.264 317.012 247.144C317.012 247.312 317.012 247.493 316.952 247.649C316.82 247.096 315.836 244.048 315.752 243.856C314.552 241.263 310.771 236.942 307.602 237.302C307.077 237.376 306.574 237.561 306.125 237.843C305.677 238.125 305.293 238.498 304.998 238.939C304.704 239.38 304.505 239.877 304.416 240.4C304.327 240.922 304.349 241.458 304.481 241.971C304.961 244.168 307.17 245.848 309.102 246.772C311.287 247.781 316.568 247.805 316.94 247.805C316.703 250.673 316.282 253.524 315.68 256.339C315.236 258.427 314.708 260.516 314.156 262.617C313.964 261.884 313.051 259.016 312.955 258.872C311.755 256.279 307.974 251.958 304.805 252.318C304.28 252.392 303.777 252.577 303.329 252.859C302.88 253.141 302.496 253.514 302.201 253.955C301.907 254.396 301.709 254.893 301.619 255.416C301.53 255.938 301.553 256.474 301.684 256.987C302.164 259.184 304.373 260.864 306.306 261.788C308.418 262.761 313.423 262.821 314.096 262.821C313.844 263.769 313.604 264.729 313.339 265.677C312.499 268.786 311.635 271.895 310.939 274.992C310.675 276.06 310.459 277.128 310.231 278.197C309.907 277.116 309.27 275.16 309.198 275.004C307.998 272.399 304.217 268.078 301.048 268.45C300.523 268.525 300.02 268.709 299.572 268.991C299.123 269.273 298.739 269.647 298.444 270.087C298.15 270.528 297.952 271.026 297.862 271.548C297.773 272.071 297.795 272.606 297.927 273.119C298.407 275.316 300.616 276.984 302.549 277.921C304.481 278.857 308.826 278.929 310.075 278.941C309.714 280.729 309.402 282.542 309.174 284.258C309.09 285.015 308.958 285.795 308.922 286.527C308.886 287.259 308.814 288.003 308.766 288.724C308.706 290.224 308.658 291.628 308.646 293.033C308.646 293.741 308.646 294.401 308.646 295.097C308.478 293.897 308.178 292.132 308.13 291.976C307.362 289.228 304.265 284.39 301.072 284.258C300.543 284.254 300.019 284.361 299.533 284.573C299.048 284.784 298.612 285.095 298.255 285.485C297.897 285.876 297.626 286.337 297.458 286.839C297.29 287.341 297.229 287.873 297.279 288.399C297.423 290.656 299.356 292.637 301.132 293.813C302.909 294.989 307.854 295.889 308.634 296.01C308.634 297.702 308.634 299.334 308.634 300.871C308.766 305.732 309.054 309.765 309.294 312.598C309.534 315.431 309.738 317.039 309.738 317.039C309.807 317.311 309.975 317.547 310.208 317.702C310.441 317.857 310.724 317.92 311.001 317.878C311.278 317.836 311.53 317.693 311.707 317.475C311.884 317.258 311.974 316.983 311.959 316.703C311.959 316.703 311.731 315.143 311.431 312.346C311.131 309.549 310.759 305.564 310.519 300.763C310.459 299.382 310.399 297.906 310.363 296.394C311.155 296.322 316.016 295.829 317.997 294.701C319.977 293.573 321.91 291.784 322.198 289.552C322.283 289.029 322.257 288.494 322.122 287.982C321.987 287.47 321.746 286.992 321.414 286.579C321.083 286.166 320.668 285.827 320.197 285.584C319.726 285.342 319.21 285.201 318.681 285.171C315.488 285.087 312.079 289.72 311.131 292.373C311.071 292.541 310.579 294.653 310.363 295.733C310.363 294.821 310.363 293.921 310.363 292.961C310.363 291.604 310.363 290.152 310.363 288.748C310.363 288.027 310.447 287.295 310.483 286.551C310.519 285.807 310.615 285.087 310.675 284.354C310.795 283.262 310.963 282.158 311.143 281.042C312.571 281.114 316.64 281.234 318.549 280.501C320.457 279.769 322.858 278.209 323.47 276.048C323.635 275.545 323.692 275.012 323.637 274.485C323.582 273.958 323.417 273.449 323.152 272.99C322.887 272.531 322.528 272.134 322.099 271.823C321.67 271.512 321.18 271.296 320.661 271.187C317.529 270.611 313.459 274.68 312.103 277.188L311.575 278.497C311.767 277.417 311.971 276.336 312.211 275.256C312.883 272.171 313.676 269.05 314.456 265.917L314.924 263.961C316.124 264.021 320.541 264.201 322.546 263.433C324.55 262.665 326.855 261.14 327.479 258.98C327.642 258.475 327.697 257.942 327.64 257.415C327.584 256.888 327.417 256.379 327.151 255.921C326.885 255.463 326.526 255.065 326.096 254.755C325.667 254.444 325.177 254.227 324.658 254.118C321.526 253.542 317.457 257.611 316.1 260.12C316.1 260.216 315.788 260.876 315.488 261.632C315.884 259.928 316.256 258.223 316.58 256.519C317.149 253.599 317.518 250.643 317.685 247.673C318.357 247.673 323.362 247.985 325.535 247.144C327.059 246.587 328.42 245.659 329.496 244.444C330.572 245.659 331.933 246.587 333.457 247.144C335.629 247.985 340.659 247.709 341.307 247.673C341.48 250.643 341.848 253.598 342.411 256.519C342.735 258.223 343.107 259.928 343.504 261.632C343.203 260.876 342.939 260.216 342.891 260.12C341.547 257.611 337.478 253.542 334.333 254.118C333.815 254.227 333.325 254.444 332.896 254.754C332.467 255.065 332.108 255.463 331.843 255.922C331.578 256.38 331.412 256.89 331.358 257.417C331.303 257.944 331.36 258.476 331.524 258.98C332.148 261.14 334.465 262.665 336.446 263.433C338.426 264.201 342.891 264.021 344.068 263.961C344.224 264.621 344.38 265.269 344.548 265.917C345.316 269.05 346.108 272.171 346.792 275.256C347.032 276.336 347.225 277.417 347.429 278.497C347.164 277.837 346.936 277.297 346.888 277.188C345.544 274.68 341.475 270.611 338.33 271.187C337.812 271.296 337.322 271.512 336.893 271.823C336.464 272.134 336.105 272.531 335.84 272.99C335.575 273.449 335.41 273.958 335.355 274.485C335.3 275.012 335.357 275.545 335.521 276.048C336.146 278.209 338.462 279.733 340.443 280.501C342.423 281.27 346.444 281.114 347.861 281.042C348.029 282.158 348.209 283.262 348.317 284.354C348.389 285.087 348.497 285.795 348.521 286.551C348.545 287.307 348.593 288.027 348.629 288.748C348.629 290.152 348.629 291.604 348.629 292.961C348.629 293.921 348.629 294.821 348.629 295.733C348.401 294.653 347.909 292.541 347.849 292.373C346.9 289.684 343.492 285.051 340.299 285.171C339.77 285.201 339.253 285.342 338.782 285.584C338.312 285.827 337.897 286.166 337.565 286.579C337.234 286.992 336.993 287.47 336.858 287.982C336.723 288.494 336.697 289.029 336.782 289.552C337.07 291.784 339.182 293.645 340.983 294.701C342.783 295.757 347.825 296.322 348.617 296.394C348.617 297.906 348.533 299.382 348.461 300.763C348.233 305.564 347.861 309.561 347.561 312.346C347.261 315.131 347.02 316.703 347.02 316.703C347.006 316.983 347.096 317.258 347.273 317.475C347.45 317.693 347.701 317.836 347.978 317.878C348.255 317.92 348.538 317.857 348.772 317.702C349.005 317.547 349.172 317.311 349.241 317.039V317.039C349.241 317.039 349.445 315.419 349.697 312.598C349.949 309.777 350.225 305.732 350.345 300.871C350.345 299.334 350.405 297.702 350.405 296.01C351.186 295.889 355.999 295.085 357.919 293.813C359.84 292.541 361.628 290.656 361.76 288.399C361.816 287.861 361.755 287.318 361.582 286.805C361.409 286.292 361.129 285.823 360.759 285.428C360.389 285.033 359.939 284.722 359.439 284.517C358.938 284.311 358.4 284.214 357.859 284.234Z" fill="#263238"/>
<path d="M70.9465 345.307C70.9465 345.307 71.1506 353.457 72.531 357.826C73.5344 360.816 74.7374 363.736 76.1319 366.564C76.1319 366.564 70.9705 369.349 68.5819 369.553C66.1933 369.757 63.0244 359.014 63.0244 351.668C63.0244 344.322 65.7852 342.126 70.9465 345.307Z" fill="white" stroke="#263238" stroke-width="0.48509" stroke-linecap="round" stroke-linejoin="round"/>
<path d="M56.5544 323.953C56.5544 323.953 64.9567 323.641 68.1615 326.029C71.3664 328.418 72.5307 338.945 73.527 343.122L74.5232 347.299C72.1857 348.221 69.7771 348.951 67.3213 349.483C66.3852 349.553 65.4549 349.685 64.5366 349.88C64.5366 349.88 62.0039 335.428 59.0271 331.203C57.5218 329.029 55.861 326.967 54.0578 325.033C54.0578 325.033 52.7134 323.425 56.5544 323.953Z" fill="white" stroke="#263238" stroke-width="0.48509" stroke-linecap="round" stroke-linejoin="round"/>
<path d="M49.6889 311.122C48.9948 313.781 47.9236 316.328 46.508 318.684C44.1074 322.657 43.1231 325.429 35.7772 325.633C28.4312 325.838 24.6502 331.827 21.5053 349.676C18.3605 367.525 16.536 387.234 21.9015 399.753C27.2669 412.273 43.1111 411.048 53.4579 407.303C63.8047 403.558 66.1813 391.807 66.3733 379.096C66.5654 366.384 66.5774 346.303 64.5849 336.16C62.5923 326.018 56.8428 323.845 54.2501 323.053C51.6574 322.261 55.0543 317.483 55.0543 317.483L49.6889 311.122Z" fill="white"/>
<g style="mix-blend-mode:multiply" opacity="0.4">
<path d="M28.7072 350.12C28.7072 350.12 26.9548 354.921 30.0636 358.654C33.1724 362.387 40.8665 360.599 39.3781 362.339C37.8897 364.08 31.2279 366.228 30.0636 367.969C29.7224 368.408 29.5216 368.939 29.4873 369.494C29.453 370.048 29.587 370.6 29.8716 371.078C29.8716 371.078 23.7499 372.17 23.3178 371.138C22.8857 370.105 26.9188 355.642 26.9188 355.642L28.7072 350.12Z" fill="#92E3A9"/>
</g>
<g style="mix-blend-mode:multiply" opacity="0.4">
<path d="M30.5797 376.516C30.5797 376.516 26.3186 381.173 26.5107 382.517C26.7027 383.862 30.5797 380.777 29.8115 382.709C29.0433 384.642 25.7304 387.763 24.7582 389.311C23.7859 390.859 19.9569 393.608 19.9569 393.608L18.5885 383.105L18.3245 381.269L30.5797 376.516Z" fill="#92E3A9"/>
</g>
<path d="M49.6889 311.122C48.9948 313.781 47.9236 316.328 46.508 318.684C44.1074 322.657 43.1231 325.429 35.7772 325.633C28.4312 325.838 24.6502 331.827 21.5053 349.676C18.3605 367.525 16.536 387.234 21.9015 399.753C27.2669 412.273 43.1111 411.048 53.4579 407.303C63.8047 403.558 66.1813 391.807 66.3733 379.096C66.5654 366.384 66.5774 346.303 64.5849 336.16C62.5923 326.018 56.8428 323.845 54.2501 323.053C51.6574 322.261 55.0543 317.483 55.0543 317.483L49.6889 311.122Z" stroke="#263238" stroke-width="0.48509" stroke-linecap="round" stroke-linejoin="round"/>
<path d="M56.5545 323.953C55.8117 323.591 55.041 323.29 54.2498 323.053C51.6691 322.261 55.0541 317.483 55.0541 317.483L49.6886 311.122C48.9945 313.781 47.9234 316.328 46.5078 318.684C44.4792 322.056 43.447 324.565 38.6697 325.369C40.1849 327.553 41.2911 329.993 41.9345 332.571C43.1349 337.745 45.7036 346.087 50.4808 344.106C55.018 342.222 58.463 331.335 56.5545 323.953Z" fill="white"/>
<g style="mix-blend-mode:multiply" opacity="0.4">
<path d="M44.1672 325.273C42.9085 326.167 41.5028 326.833 40.014 327.242L38.8137 325.189C38.8137 325.189 43.771 325.801 48.7284 314.386C49.8064 316.5 51.3298 318.355 53.1936 319.824L47.276 320.58" fill="#92E3A9"/>
</g>
<path d="M56.5545 323.953C55.8117 323.591 55.041 323.29 54.2498 323.053C51.6691 322.261 55.0541 317.483 55.0541 317.483L49.6886 311.122C48.9945 313.781 47.9234 316.328 46.5078 318.684C44.4792 322.056 43.447 324.565 38.6697 325.369C40.1849 327.553 41.2911 329.993 41.9345 332.571C43.1349 337.745 45.7036 346.087 50.4808 344.106C55.018 342.222 58.463 331.335 56.5545 323.953Z" stroke="#263238" stroke-width="0.48509" stroke-linecap="round" stroke-linejoin="round"/>
<path d="M29.1992 348.271L34.9127 343.194" stroke="#263238" stroke-width="0.48509" stroke-linecap="round" stroke-linejoin="round"/>
<path d="M35.7771 325.633C35.7771 325.633 37.4575 327.938 38.7299 334.612C40.0022 341.286 43.8073 347.323 47.6243 348.583C51.4413 349.844 53.3378 348.583 53.3378 348.583" stroke="#263238" stroke-width="0.48509" stroke-linecap="round" stroke-linejoin="round"/>
<path d="M16.8961 347.695C16.8961 347.695 13.9193 374.102 13.7152 378.688C13.5112 383.273 15.2997 382.073 18.2885 381.28C21.2773 380.488 38.3578 372.878 42.2949 371.534C46.2319 370.189 46.8681 369.745 50.049 370.141C52.8334 370.559 55.6382 370.827 58.4512 370.946C60.4437 370.946 58.2472 366.372 55.2704 365.58C52.2936 364.788 52.4856 364.98 49.1127 365.772C45.7398 366.564 40.3624 368.953 34.6008 370.141C28.8393 371.33 23.87 371.738 23.2818 371.138C22.6936 370.537 26.8828 353.253 26.8828 353.253L16.8961 347.695Z" fill="white" stroke="#263238" stroke-width="0.48509" stroke-linecap="round" stroke-linejoin="round"/>
<path d="M38.6699 325.37C36.4542 325.634 34.2162 325.654 31.9961 325.43C29.9654 325.285 27.9269 325.566 26.0109 326.254C24.0949 326.943 22.3437 328.023 20.8691 329.427C17.6883 332.596 14.8675 342.93 13.6672 345.523C12.4669 348.116 12.0828 349.292 12.0828 349.292L26.7867 355.654L32.9443 338.165" fill="white"/>
<g style="mix-blend-mode:multiply" opacity="0.4">
<path d="M38.5138 325.237C35.6238 325.548 32.718 325.688 29.8115 325.657C28.0557 325.683 26.3274 326.096 24.7503 326.868C23.1732 327.64 21.7863 328.751 20.689 330.122C17.9643 333.231 12.3828 349.171 12.3828 349.171L15.8037 350.636C15.8037 350.636 19.5247 333.231 23.7859 330.518C27.5321 328.285 31.8527 327.204 36.2092 327.409C37.4095 327.409 38.7539 327.325 39.6061 327.241L38.5138 325.237Z" fill="#92E3A9"/>
</g>
<path d="M38.6699 325.37C36.4542 325.634 34.2162 325.654 31.9961 325.43C29.9654 325.285 27.9269 325.566 26.0109 326.254C24.0949 326.943 22.3437 328.023 20.8691 329.427C17.6883 332.596 14.8675 342.93 13.6672 345.523C12.4669 348.116 12.0828 349.292 12.0828 349.292L26.7867 355.654L32.9443 338.165" stroke="#263238" stroke-width="0.48509" stroke-linecap="round" stroke-linejoin="round"/>
<path d="M19.981 391.843C19.981 391.843 25.9826 386.441 30.1477 386.129" stroke="#263238" stroke-width="0.48509" stroke-linecap="round" stroke-linejoin="round"/>
<path d="M30.7837 383.537C27.8332 384.837 24.9668 386.321 22.2014 387.978" stroke="#263238" stroke-width="0.48509" stroke-linecap="round" stroke-linejoin="round"/>
<path d="M67.9966 305.587C70.3415 296.272 67.9066 287.629 62.558 286.283C57.2094 284.936 50.9725 291.396 48.6275 300.711C46.2826 310.026 48.7175 318.669 54.0661 320.016C59.4147 321.362 65.6516 314.902 67.9966 305.587Z" fill="white"/>
<g style="mix-blend-mode:multiply" opacity="0.4">
<path d="M53.0498 319.656C52.3777 318.312 51.4894 315.083 52.1256 313.043C53.0979 309.946 58.3313 306.465 58.3313 306.465C58.3313 306.465 55.9306 307.041 53.53 307.413C51.1293 307.785 47.8044 308.325 47.8044 308.325L48.6327 314.135C49.749 316.752 51.1053 318.888 53.0498 319.656Z" fill="#92E3A9"/>
</g>
<path d="M67.9966 305.587C70.3415 296.272 67.9066 287.629 62.558 286.283C57.2094 284.936 50.9725 291.396 48.6275 300.711C46.2826 310.026 48.7175 318.669 54.0661 320.016C59.4147 321.362 65.6516 314.902 67.9966 305.587Z" stroke="#263238" stroke-width="0.48509" stroke-linecap="round" stroke-linejoin="round"/>
<g style="mix-blend-mode:multiply" opacity="0.4">
<path d="M48.7045 314.65C47.7923 316.451 44.9595 322.068 42.0307 323.917C41.2041 324.45 40.3016 324.854 39.354 325.117" fill="#92E3A9"/>
</g>
<g style="mix-blend-mode:multiply" opacity="0.4">
<path d="M53.4817 344.106C53.4817 344.106 54.262 355.161 53.4817 357.886C52.7015 360.611 49.6047 360.407 51.1531 361.955C52.8398 363.36 54.6612 364.594 56.5906 365.64L59.3033 368.365L59.9155 364.236C59.9155 364.236 57.971 364.824 56.0264 358.03C54.7854 353.469 53.9341 348.811 53.4817 344.106V344.106Z" fill="#92E3A9"/>
</g>
<path d="M62.7244 307.989C62.0936 308.903 61.6828 309.95 61.524 311.05C61.524 311.41 61.524 311.734 61.524 311.998C61.5348 312.124 61.518 312.251 61.475 312.37C61.4319 312.489 61.3635 312.598 61.2745 312.688C61.1855 312.778 61.078 312.848 60.9595 312.892C60.8409 312.937 60.7141 312.955 60.5878 312.946L59.1594 312.838" stroke="#263238" stroke-width="0.48509" stroke-linecap="round" stroke-linejoin="round"/>
<path d="M56.6146 315.719C55.9511 315.792 55.2844 315.61 54.7511 315.208C54.2177 314.807 53.8581 314.216 53.7458 313.558" stroke="#263238" stroke-width="0.48509" stroke-linecap="round" stroke-linejoin="round"/>
<path d="M58.7753 307.628L58.0551 309.069C57.6342 309.27 57.1588 309.325 56.7028 309.228C56.2469 309.13 55.8361 308.884 55.5344 308.529" stroke="#263238" stroke-width="0.48509" stroke-linecap="round" stroke-linejoin="round"/>
<path d="M64.5128 309.79L63.4445 311.23C63.4445 311.23 62.0042 311.23 62.0042 310.15" stroke="#263238" stroke-width="0.48509" stroke-linecap="round" stroke-linejoin="round"/>
<path d="M70.2023 297.018C72.6029 289.948 66.7574 282.614 58.031 282.77C49.3047 282.926 43.1951 291.46 40.3023 297.306C37.5972 300.017 35.2715 303.081 33.3885 306.416C29.7875 312.574 29.7875 316.151 27.0268 320.124C24.266 324.097 16.1038 324.301 11.3266 329.475C6.54928 334.648 6.52527 340.601 8.74586 344.575C10.9665 348.548 12.3468 353.709 9.53808 357.286C6.72933 360.863 3.98059 365.688 6.16518 373.79C6.57606 375.6 7.5295 377.24 8.898 378.493C10.2665 379.746 11.9848 380.551 13.8232 380.8C13.7033 380.123 13.6671 379.434 13.7152 378.748C13.8712 375.147 15.6957 358.57 16.4999 351.236L12.1308 349.34C12.1308 349.34 12.5269 348.14 13.7152 345.571C14.9035 343.002 17.6883 332.643 20.9171 329.475C22.3927 328.073 24.1444 326.995 26.0603 326.309C27.9763 325.622 30.0143 325.343 32.0441 325.489C34.2642 325.714 36.5022 325.694 38.7179 325.429C40.0562 325.267 41.3347 324.78 42.443 324.013C43.5514 323.245 44.4563 322.22 45.0796 321.024V321.024L45.3917 320.508V320.448C45.7278 319.896 46.0638 319.308 46.4359 318.696C47.2977 317.243 48.0365 315.722 48.6445 314.146C48.0387 312.268 47.715 310.31 47.6843 308.337C51.5973 308.205 62.4242 307.245 67.8977 300.811C68.2218 300.415 68.5218 300.019 68.7859 299.611C68.7077 301.636 68.4181 303.647 67.9217 305.612C66.9117 310.125 64.6338 314.257 61.3559 317.519L60.7798 318.011L60.4197 318.3C60.2396 318.432 60.0716 318.564 59.8915 318.672C59.7651 318.764 59.6328 318.848 59.4954 318.924C59.3328 319.033 59.1645 319.133 58.9913 319.224L58.5712 319.44L58.0671 319.656L57.6469 319.812L57.1428 319.968L56.7227 320.076C55.8259 320.28 54.8947 320.28 53.998 320.076L53.6499 319.956C53.2679 320.673 53.145 321.5 53.3018 322.297C53.3636 322.497 53.4771 322.679 53.6308 322.822C53.7846 322.965 53.9733 323.065 54.178 323.113V323.113C54.9485 323.344 55.6991 323.637 56.4226 323.989C55.9654 328.841 55.1632 333.655 54.022 338.393C52.0294 346.735 54.214 354.681 56.6027 360.443C58.9913 366.204 66.3373 369.781 68.918 366.444C71.4986 363.108 70.7064 359.495 69.122 351.536C67.5376 343.578 63.3605 332.067 63.3605 323.317C63.3605 314.567 68.5219 311.794 71.1145 306.632C72.975 302.899 71.3186 298.962 70.2023 297.018Z" fill="#263238"/>
<path d="M67.7778 294.341C67.7778 294.341 58.6073 302.371 49.773 303.236C40.9386 304.1 40.0264 304.088 40.0264 304.088" stroke="white" stroke-width="0.345985" stroke-linecap="round" stroke-linejoin="round"/>
<path d="M65.773 288.315C65.773 288.315 57.4548 297.786 50.5769 300.079C43.6991 302.371 40.8303 302.371 40.8303 302.371" stroke="white" stroke-width="0.345985" stroke-linecap="round" stroke-linejoin="round"/>
<path d="M60.8998 284.883C60.8998 284.883 58.6072 292.085 53.1577 295.494" stroke="white" stroke-width="0.345985" stroke-linecap="round" stroke-linejoin="round"/>
<path d="M45.1275 311.83C45.1275 311.83 44.8394 321.012 39.6781 322.44C34.5167 323.869 28.7911 321.012 22.1894 324.445C19.6128 325.831 17.5194 327.969 16.1878 330.574C14.8562 333.18 14.3496 336.129 14.7354 339.029" stroke="white" stroke-width="0.345985" stroke-linecap="round" stroke-linejoin="round"/>
<path d="M12.7311 377.776C11.3636 375.791 10.4494 373.53 10.0532 371.153C9.65697 368.776 9.78851 366.341 10.4385 364.02C12.7311 356.278 14.4475 353.409 14.4475 353.409" stroke="white" stroke-width="0.345985" stroke-linecap="round" stroke-linejoin="round"/>
<path d="M63.5168 326.737C63.5168 326.737 64.9451 337.636 60.0718 344.514C55.1985 351.392 58.3554 360.862 58.3554 360.862" stroke="white" stroke-width="0.345985" stroke-linecap="round" stroke-linejoin="round"/>
<path d="M63.7684 316.703C63.7684 316.703 64.0565 319.86 60.0354 327.89C56.0143 335.92 54.874 338.501 54.5859 344.238" stroke="white" stroke-width="0.345985" stroke-linecap="round" stroke-linejoin="round"/>
<path d="M91.292 407.999C91.292 407.999 97.7377 407.375 101.471 409.032C105.204 410.688 106.044 413.389 106.872 410.904C107.7 408.42 107.7 406.955 104.592 405.299C101.483 403.642 100.222 404.675 98.9861 403.426C98.3791 402.775 97.6794 402.217 96.9095 401.77C96.9095 401.77 93.5846 401.35 93.3686 403.222C93.1525 405.095 90.0557 405.707 90.0557 405.707L91.292 407.999Z" fill="white" stroke="#263238" stroke-width="0.48509" stroke-miterlimit="10"/>
<path d="M118.239 359.218C116.055 354.249 106.944 357.658 96.3813 366.168C82.7096 377.187 72.0868 379.756 66.3732 380.2V380.02C63.3964 378.627 59.1713 378.567 54.142 379.383C53.9859 379.155 53.8299 378.927 53.6858 378.687C44.0833 363.791 41.5626 361.211 38.3818 363.791C35.2009 366.372 31.6239 370.345 32.8123 382.672C32.9183 383.642 33.103 384.601 33.3644 385.541C28.6372 387.787 24.1424 390.493 19.9448 393.619C20.4066 395.718 21.0574 397.771 21.8893 399.753C27.2308 412.236 43.051 411.096 53.3858 407.339C56.5109 409.029 59.9065 410.162 63.4205 410.688C71.6066 411.708 77.1401 411.408 80.381 410.172L85.8785 414.661C94.532 408.095 101.863 399.949 107.484 390.654C110.225 386.019 112.655 381.207 114.758 376.251C118.179 368.509 119.343 361.715 118.239 359.218Z" fill="#263238"/>
<path d="M53.662 378.64C54.8065 380.43 56.057 382.149 57.407 383.789L94.725 377.092L82.9739 367.681L49.689 372.554C50.8293 374.307 52.1616 376.347 53.662 378.64Z" fill="#92E3A9" stroke="#263238" stroke-width="0.48509" stroke-linecap="round" stroke-linejoin="round"/>
<path opacity="0.5" d="M53.662 378.64C54.8065 380.43 56.057 382.149 57.407 383.789L94.725 377.092L82.9739 367.681L49.689 372.554C50.8293 374.307 52.1616 376.347 53.662 378.64Z" fill="white" stroke="#263238" stroke-width="0.52825" stroke-linecap="round" stroke-linejoin="round"/>
<path d="M61.968 356.59L56.1584 382.241C56.5666 382.781 56.9867 383.309 57.3588 383.825L94.7248 377.091L102.107 350.228L61.968 356.59Z" fill="#92E3A9" stroke="#263238" stroke-width="0.48509" stroke-linecap="round" stroke-linejoin="round"/>
<path d="M80.9811 371.51C80.2585 371.715 79.4916 371.702 78.7763 371.473C78.061 371.245 77.4291 370.81 76.9597 370.223C76.4904 369.637 76.2044 368.925 76.1377 368.177C76.0709 367.429 76.2263 366.678 76.5845 366.018C76.9426 365.358 77.4875 364.818 78.151 364.466C78.8145 364.114 79.5671 363.966 80.3145 364.039C81.0619 364.113 81.771 364.406 82.3529 364.881C82.9347 365.356 83.3636 365.991 83.5858 366.709C83.8698 367.691 83.7557 368.745 83.2682 369.644C82.7808 370.542 81.9591 371.213 80.9811 371.51V371.51Z" fill="white"/>
<path opacity="0.5" d="M61.968 356.59L56.1584 382.241C56.5666 382.781 56.9867 383.309 57.3588 383.825L94.7248 377.091L102.107 350.228L61.968 356.59Z" fill="white" stroke="#263238" stroke-width="0.52825" stroke-linecap="round" stroke-linejoin="round"/>
<path d="M80.9811 371.51C80.2585 371.715 79.4916 371.702 78.7763 371.473C78.061 371.245 77.4291 370.81 76.9597 370.223C76.4904 369.637 76.2044 368.925 76.1377 368.177C76.0709 367.429 76.2263 366.678 76.5845 366.018C76.9426 365.358 77.4875 364.818 78.151 364.466C78.8145 364.114 79.5671 363.966 80.3145 364.039C81.0619 364.113 81.771 364.406 82.3529 364.881C82.9347 365.356 83.3636 365.991 83.5858 366.709C83.8698 367.691 83.7557 368.745 83.2682 369.644C82.7808 370.542 81.9591 371.213 80.9811 371.51V371.51Z" fill="white" stroke="#263238" stroke-width="0.52825" stroke-linecap="round" stroke-linejoin="round"/>
<path d="M79.1205 408.083C79.1205 408.083 73.9831 411.9 71.0904 413.485C68.1976 415.069 67.2733 414.529 64.5006 417.17C61.7279 419.811 59.3752 421.647 58.7151 422.703C58.0549 423.76 57.2627 424.804 56.8666 422.439C56.7046 421.226 56.8632 419.991 57.3265 418.859C57.7897 417.726 58.5416 416.734 59.5073 415.981C61.3438 414.661 63.8524 414.133 63.8524 412.381C63.792 411.615 64.033 410.857 64.5242 410.267C65.0154 409.677 65.7177 409.303 66.4811 409.224C67.9335 409.224 68.8818 410.664 71.6185 409.224C73.4996 408.062 75.0433 406.427 76.0957 404.482L79.1205 408.083Z" fill="white" stroke="#263238" stroke-width="0.48509" stroke-miterlimit="10"/>
<path d="M33.6765 386.862C33.6765 386.862 39.354 400.437 52.4375 406.607" stroke="white" stroke-width="0.345985" stroke-miterlimit="10"/>
<path d="M77.8123 397.977C77.8123 397.977 85.9384 393.908 97.8456 373.334" stroke="white" stroke-width="0.345985" stroke-miterlimit="10"/>
<path d="M56.0266 382.661C56.0266 382.661 64.6329 395.277 74.6676 399.574" stroke="white" stroke-width="0.345985" stroke-miterlimit="10"/>
<path d="M210.484 254.227H136.784C131.7 254.227 127.578 258.348 127.578 263.433V419.019C127.578 424.103 131.7 428.225 136.784 428.225H210.484C215.569 428.225 219.691 424.103 219.691 419.019V263.433C219.691 258.348 215.569 254.227 210.484 254.227Z" fill="#263238"/>
<path d="M215.597 273.335H131.671V409.128H215.597V273.335Z" fill="white"/>
<g style="mix-blend-mode:multiply" opacity="0.4">
<path d="M215.597 363.491L137.36 409.115H215.597V363.491Z" fill="#92E3A9"/>
</g>
<path d="M215.597 273.335H131.671V409.128H215.597V273.335Z" stroke="#263238" stroke-width="0.52825" stroke-miterlimit="10"/>
<path d="M182.757 263.829H164.512C164.193 263.829 163.888 263.703 163.663 263.478C163.438 263.253 163.312 262.947 163.312 262.629C163.312 262.311 163.438 262.005 163.663 261.78C163.888 261.555 164.193 261.429 164.512 261.429H182.757C183.075 261.429 183.38 261.555 183.605 261.78C183.831 262.005 183.957 262.311 183.957 262.629C183.957 262.947 183.831 263.253 183.605 263.478C183.38 263.703 183.075 263.829 182.757 263.829Z" fill="#92E3A9"/>
<path opacity="0.4" d="M182.757 263.829H164.512C164.193 263.829 163.888 263.703 163.663 263.478C163.438 263.253 163.312 262.947 163.312 262.629C163.312 262.311 163.438 262.005 163.663 261.78C163.888 261.555 164.193 261.429 164.512 261.429H182.757C183.075 261.429 183.38 261.555 183.605 261.78C183.831 262.005 183.957 262.311 183.957 262.629C183.957 262.947 183.831 263.253 183.605 263.478C183.38 263.703 183.075 263.829 182.757 263.829Z" fill="white"/>
<path d="M178.616 416.786C178.616 415.801 178.323 414.838 177.776 414.019C177.229 413.199 176.451 412.561 175.54 412.184C174.63 411.807 173.629 411.708 172.662 411.9C171.696 412.093 170.808 412.567 170.112 413.264C169.415 413.96 168.941 414.848 168.749 415.814C168.556 416.78 168.655 417.782 169.032 418.692C169.409 419.603 170.048 420.38 170.867 420.928C171.686 421.475 172.649 421.767 173.634 421.767C174.955 421.767 176.222 421.243 177.157 420.308C178.091 419.374 178.616 418.107 178.616 416.786Z" fill="#92E3A9" stroke="#263238" stroke-width="0.704333" stroke-miterlimit="10"/>
<path d="M176.155 414.266H171.114V419.307H176.155V414.266Z" fill="#92E3A9" stroke="#263238" stroke-width="0.52825" stroke-linecap="round" stroke-linejoin="round"/>
<path opacity="0.6" d="M176.155 414.266H171.114V419.307H176.155V414.266Z" fill="white" stroke="#263238" stroke-width="0.52825" stroke-linecap="round" stroke-linejoin="round"/>
<path d="M176.155 414.266H171.114V419.307H176.155V414.266Z" stroke="#263238" stroke-width="0.52825" stroke-linecap="round" stroke-linejoin="round"/>
<path d="M459.838 415.238V307.845C459.838 300.433 453.83 294.425 446.419 294.425H219.714C212.303 294.425 206.295 300.433 206.295 307.845V415.238C206.295 422.649 212.303 428.657 219.714 428.657H446.419C453.83 428.657 459.838 422.649 459.838 415.238Z" fill="#92E3A9" stroke="#263238" stroke-width="0.868674" stroke-miterlimit="10"/>
<path d="M446.323 422.691V300.391H219.81V422.691H446.323Z" fill="white"/>
<g style="mix-blend-mode:multiply" opacity="0.4">
<path d="M446.323 324.938L278.722 422.68H446.323V324.938Z" fill="#92E3A9"/>
</g>
<path d="M446.323 422.691V300.391H219.81V422.691H446.323Z" stroke="#263238" stroke-width="0.651505" stroke-miterlimit="10"/>
<path d="M452.42 363.372C452.054 363.372 451.697 363.263 451.392 363.059C451.088 362.856 450.851 362.566 450.712 362.228C450.572 361.889 450.536 361.517 450.608 361.158C450.681 360.799 450.858 360.47 451.118 360.212C451.377 359.954 451.708 359.779 452.067 359.709C452.427 359.639 452.799 359.677 453.136 359.819C453.474 359.961 453.762 360.2 453.963 360.505C454.165 360.811 454.271 361.169 454.269 361.535C454.266 362.023 454.07 362.491 453.723 362.835C453.377 363.179 452.909 363.372 452.42 363.372Z" fill="#263238"/>
<path d="M419.604 295.65H427.706C427.951 295.65 428.15 295.451 428.15 295.206V294.87C428.15 294.624 427.951 294.426 427.706 294.426H419.604C419.359 294.426 419.16 294.624 419.16 294.87V295.206C419.16 295.451 419.359 295.65 419.604 295.65Z" fill="#92E3A9" stroke="#263238" stroke-width="0.652671" stroke-miterlimit="10"/>
<path d="M390.988 295.638H406.508C406.59 295.639 406.671 295.624 406.746 295.594C406.822 295.564 406.891 295.52 406.949 295.463C407.007 295.406 407.053 295.338 407.085 295.262C407.116 295.187 407.132 295.107 407.132 295.025C407.132 294.944 407.116 294.863 407.085 294.788C407.053 294.713 407.007 294.645 406.949 294.588C406.891 294.531 406.822 294.486 406.746 294.456C406.671 294.426 406.59 294.412 406.508 294.413H390.988C390.826 294.413 390.67 294.478 390.555 294.593C390.44 294.707 390.376 294.863 390.376 295.025V295.025C390.376 295.188 390.44 295.343 390.555 295.458C390.67 295.573 390.826 295.638 390.988 295.638V295.638Z" fill="#92E3A9" stroke="#263238" stroke-width="0.652671" stroke-miterlimit="10"/>
<path d="M433.636 432.054C433.636 433.843 422.929 435.295 409.725 435.295C396.522 435.295 385.803 433.855 385.803 432.054C385.803 430.254 396.51 428.801 409.725 428.801C422.941 428.801 433.636 430.254 433.636 432.054Z" fill="#92E3A9"/>
<path d="M389.14 383.945C389.14 411.265 410.745 433.399 410.745 433.399C410.745 433.399 432.351 411.265 432.351 383.945C432.351 356.626 410.745 334.492 410.745 334.492C410.745 334.492 389.14 356.626 389.14 383.945Z" fill="#263238"/>
<path d="M410.781 433.399V334.492" stroke="white" stroke-width="0.738" stroke-miterlimit="10"/>
<path d="M410.781 369.65L398.658 359.075" stroke="white" stroke-width="0.738" stroke-miterlimit="10"/>
<path d="M410.973 385.998L425.965 364.26" stroke="white" stroke-width="0.738" stroke-miterlimit="10"/>
<path d="M410.781 395.42L392.896 379.456" stroke="white" stroke-width="0.738" stroke-miterlimit="10"/>
<path d="M410.973 408.108L428.666 392.335" stroke="white" stroke-width="0.738" stroke-miterlimit="10"/>
<path d="M410.973 419.067L397.122 408.108" stroke="white" stroke-width="0.738" stroke-miterlimit="10"/>
<path d="M374.148 419.451C384.663 431.311 402.559 432.583 402.559 432.583C402.559 432.583 403.436 414.662 392.957 402.803C382.478 390.944 364.545 389.671 364.545 389.671C364.545 389.671 363.597 407.652 374.148 419.451Z" fill="#263238"/>
<path d="M402.559 432.631L364.509 389.719" stroke="white" stroke-width="0.738" stroke-miterlimit="10"/>
<path d="M378.037 404.975L368.71 405.047" stroke="white" stroke-width="0.738" stroke-miterlimit="10"/>
<path d="M384.41 411.997L382.55 396.801" stroke="white" stroke-width="0.738" stroke-miterlimit="10"/>
<path d="M387.951 416.15L374.052 416.114" stroke="white" stroke-width="0.738" stroke-miterlimit="10"/>
<path d="M392.921 421.588L394.529 407.94" stroke="white" stroke-width="0.738" stroke-miterlimit="10"/>
<path d="M397.134 426.341L386.907 426.917" stroke="white" stroke-width="0.738" stroke-miterlimit="10"/>
<path d="M429.291 402.442C418.248 413.797 418.308 431.754 418.308 431.754C418.308 431.754 436.252 431.286 447.283 419.919C458.314 408.552 458.266 390.643 458.266 390.643C458.266 390.643 440.322 391.075 429.291 402.442Z" fill="#263238"/>
<path d="M418.308 431.754L458.266 390.607" stroke="white" stroke-width="0.738" stroke-miterlimit="10"/>
<path d="M444.066 405.227L443.298 395.937" stroke="white" stroke-width="0.738" stroke-miterlimit="10"/>
<path d="M437.537 412.105L452.553 409.128" stroke="white" stroke-width="0.738" stroke-miterlimit="10"/>
<path d="M433.648 415.946L432.663 402.083" stroke="white" stroke-width="0.738" stroke-miterlimit="10"/>
<path d="M428.606 421.312L442.338 421.888" stroke="white" stroke-width="0.738" stroke-miterlimit="10"/>
<path d="M424.177 425.872L422.844 415.718" stroke="white" stroke-width="0.738" stroke-miterlimit="10"/>
</svg>
