<svg width="503" height="500" viewBox="0 0 503 500" fill="none" xmlns="http://www.w3.org/2000/svg">
<path d="M135.068 119.125C123.837 125.779 112.284 131.759 100.969 138.441C48.8733 168.932 6.00082 209.811 0.736513 272.435C-3.10994 318.284 11.3353 371.629 51.6669 398.161C61.6241 404.683 72.7356 409.243 84.4039 411.595C100.857 414.95 118.278 413.631 135.068 412.662V119.125Z" fill="#92E3A9"/>
<path d="M376.903 53.917H215.169C204.755 60.413 194.991 67.8971 186.012 76.2657H408.292C398.494 67.9234 387.992 60.4459 376.903 53.917V53.917Z" fill="#92E3A9"/>
<path d="M369.336 49.7058C357.62 43.4457 345.266 38.4617 332.486 34.8394C293.811 24.016 255.501 31.2176 222.343 49.7058H369.336Z" fill="#92E3A9"/>
<path d="M464.15 141.684C450.117 118.973 432.937 98.3664 413.121 80.4775H263.222V432.344C274.415 436.09 285.875 438.99 297.503 441.019C373.927 453.261 459.433 426.041 489.082 349.013C515.656 279.988 502.446 203.143 464.15 141.684Z" fill="#92E3A9"/>
<path d="M254.027 80.4775H181.604C178.618 83.4256 175.708 86.4671 172.872 89.6023C164.427 98.7811 154.807 106.805 144.262 113.467V412.213C170.464 411.215 196.678 413.813 222.174 419.934C232.97 422.517 243.498 425.97 254.027 429.396V80.4775Z" fill="#92E3A9"/>
<g opacity="0.8">
<path opacity="0.8" d="M135.068 119.125C123.837 125.779 112.284 131.759 100.969 138.441C48.8733 168.932 6.00082 209.811 0.736513 272.435C-3.10994 318.284 11.3353 371.629 51.6669 398.161C61.6241 404.683 72.7356 409.243 84.4039 411.595C100.857 414.95 118.278 413.631 135.068 412.662V119.125Z" fill="white"/>
<path opacity="0.8" d="M376.903 53.917H215.169C204.755 60.413 194.991 67.8971 186.012 76.2657H408.292C398.494 67.9234 387.992 60.4459 376.903 53.917V53.917Z" fill="white"/>
<path opacity="0.8" d="M369.336 49.7058C357.62 43.4457 345.266 38.4617 332.486 34.8394C293.811 24.016 255.501 31.2176 222.343 49.7058H369.336Z" fill="white"/>
<path opacity="0.8" d="M464.15 141.684C450.117 118.973 432.937 98.3664 413.121 80.4775H263.222V432.344C274.415 436.09 285.875 438.99 297.503 441.019C373.927 453.261 459.433 426.041 489.082 349.013C515.656 279.988 502.446 203.143 464.15 141.684Z" fill="white"/>
<path opacity="0.8" d="M254.027 80.4775H181.604C178.618 83.4256 175.708 86.4671 172.872 89.6023C164.427 98.7811 154.807 106.805 144.262 113.467V412.213C170.464 411.215 196.678 413.813 222.174 419.934C232.97 422.517 243.498 425.97 254.027 429.396V80.4775Z" fill="white"/>
</g>
<path d="M248.468 473.7C362.43 473.7 454.815 467.528 454.815 459.915C454.815 452.301 362.43 446.129 248.468 446.129C134.506 446.129 42.1213 452.301 42.1213 459.915C42.1213 467.528 134.506 473.7 248.468 473.7Z" fill="#92E3A9"/>
<path opacity="0.5" d="M248.468 473.7C362.43 473.7 454.815 467.528 454.815 459.915C454.815 452.301 362.43 446.129 248.468 446.129C134.506 446.129 42.1213 452.301 42.1213 459.915C42.1213 467.528 134.506 473.7 248.468 473.7Z" fill="white"/>
<path d="M200.851 92.4802H181.099V96.7899V122.101V126.41H222.989V96.7899H202.254L200.851 92.4802Z" fill="#92E3A9"/>
<path d="M200.851 157.056H181.099V161.365V186.676V190.986H222.989V161.365H202.254L200.851 157.056Z" fill="#92E3A9"/>
<path d="M200.851 221.631H181.099V225.941V251.252V255.561H222.989V225.941H202.254L200.851 221.631Z" fill="#92E3A9"/>
<path d="M200.851 286.207H181.099V290.516V315.827V320.137H222.989V290.516H202.254L200.851 286.207Z" fill="#92E3A9"/>
<path d="M200.851 350.782H181.099V355.092V380.403V384.712H222.989V355.092H202.254L200.851 350.782Z" fill="#92E3A9"/>
<path d="M327.418 92.4802H307.681V96.7899V122.101V126.41H349.556V96.7899H328.822L327.418 92.4802Z" fill="#92E3A9"/>
<path d="M409.542 96.7899L408.138 92.4802H388.4V96.7899V122.101V126.41H430.276V96.7899H409.542Z" fill="#92E3A9"/>
<path d="M327.418 157.056H307.681V161.365V186.676V190.986H349.556V161.365H328.822L327.418 157.056Z" fill="#92E3A9"/>
<path d="M408.138 221.631H388.4V225.941V251.252V255.561H430.276V225.941H409.542L408.138 221.631Z" fill="#92E3A9"/>
<path d="M408.138 157.056H388.4V161.365V186.676V190.986H430.276V161.365H409.542L408.138 157.056Z" fill="#92E3A9"/>
<path d="M327.418 221.631H307.681V225.941V251.252V255.561H349.556V225.941H328.822L327.418 221.631Z" fill="#92E3A9"/>
<path d="M327.418 286.207H307.681V290.516V315.827V320.137H349.556V290.516H328.822L327.418 286.207Z" fill="#92E3A9"/>
<path d="M408.138 286.207H388.4V290.516V315.827V320.137H430.276V290.516H409.542L408.138 286.207Z" fill="#92E3A9"/>
<path d="M327.418 350.782H307.681V355.092V380.403V384.712H349.556V355.092H328.822L327.418 350.782Z" fill="#92E3A9"/>
<path d="M408.138 350.782H388.4V355.092V380.403V384.712H430.276V355.092H409.542L408.138 350.782Z" fill="#92E3A9"/>
<g opacity="0.5">
<path opacity="0.5" d="M200.851 92.4802H181.099V96.7899V122.101V126.41H222.989V96.7899H202.254L200.851 92.4802Z" fill="white"/>
<path opacity="0.5" d="M200.851 157.056H181.099V161.365V186.676V190.986H222.989V161.365H202.254L200.851 157.056Z" fill="white"/>
<path opacity="0.5" d="M200.851 221.631H181.099V225.941V251.252V255.561H222.989V225.941H202.254L200.851 221.631Z" fill="white"/>
<path opacity="0.5" d="M200.851 286.207H181.099V290.516V315.827V320.137H222.989V290.516H202.254L200.851 286.207Z" fill="white"/>
<path opacity="0.5" d="M200.851 350.782H181.099V355.092V380.403V384.712H222.989V355.092H202.254L200.851 350.782Z" fill="white"/>
<path opacity="0.5" d="M327.419 92.4802H307.681V96.7899V122.101V126.41H349.557V96.7899H328.822L327.419 92.4802Z" fill="white"/>
<path opacity="0.5" d="M409.542 96.7899L408.138 92.4802H388.4V96.7899V122.101V126.41H430.276V96.7899H409.542Z" fill="white"/>
<path opacity="0.5" d="M327.419 157.056H307.681V161.365V186.676V190.986H349.557V161.365H328.822L327.419 157.056Z" fill="white"/>
<path opacity="0.5" d="M408.138 221.631H388.4V225.941V251.252V255.561H430.276V225.941H409.542L408.138 221.631Z" fill="white"/>
<path opacity="0.5" d="M408.138 157.056H388.4V161.365V186.676V190.986H430.276V161.365H409.542L408.138 157.056Z" fill="white"/>
<path opacity="0.5" d="M327.419 221.631H307.681V225.941V251.252V255.561H349.557V225.941H328.822L327.419 221.631Z" fill="white"/>
<path opacity="0.5" d="M327.419 286.207H307.681V290.516V315.827V320.137H349.557V290.516H328.822L327.419 286.207Z" fill="white"/>
<path opacity="0.5" d="M408.138 286.207H388.4V290.516V315.827V320.137H430.276V290.516H409.542L408.138 286.207Z" fill="white"/>
<path opacity="0.5" d="M327.419 350.782H307.681V355.092V380.403V384.712H349.557V355.092H328.822L327.419 350.782Z" fill="white"/>
<path opacity="0.5" d="M408.138 350.782H388.4V355.092V380.403V384.712H430.276V355.092H409.542L408.138 350.782Z" fill="white"/>
</g>
<path d="M89.9912 189.006C89.9912 189.006 88.7277 197.668 92.9111 203.592C97.0945 209.516 127.613 234.336 130.337 235.768C133.06 237.199 144.768 234.139 141.23 224.677C137.693 215.216 111.989 195.197 106.837 189.779C101.685 184.36 96.8839 185.146 96.8839 185.146" fill="#92E3A9"/>
<path d="M89.9912 189.006C89.9912 189.006 88.7277 197.668 92.9111 203.592C97.0945 209.516 127.613 234.336 130.337 235.768C133.06 237.199 144.768 234.139 141.23 224.677C137.693 215.216 111.989 195.197 106.837 189.779C101.685 184.36 96.8839 185.146 96.8839 185.146" stroke="#263238" stroke-miterlimit="10"/>
<path d="M136.668 220.592C136.668 220.592 142.522 220.999 153.387 220.592C164.253 220.185 191.431 221.842 195.614 221.842H199.826L199.419 231.458C199.419 231.458 178.923 233.128 164.716 235.22C150.51 237.312 138.802 239.824 127.094 233.971" fill="#92E3A9"/>
<path d="M136.668 220.592C136.668 220.592 142.522 220.999 153.387 220.592C164.253 220.185 191.431 221.842 195.614 221.842H199.826L199.419 231.458C199.419 231.458 178.923 233.128 164.716 235.22C150.51 237.312 138.802 239.824 127.094 233.971" stroke="#263238" stroke-linecap="round" stroke-linejoin="round"/>
<path d="M199.783 221.842L200.513 220.143C201.669 217.445 203.63 215.17 206.129 213.63V213.63C208.33 212.985 210.432 212.041 212.376 210.822L212.727 210.611C212.727 210.611 215.338 211.369 213.807 213.419C213.423 214.015 212.888 214.5 212.258 214.825C211.627 215.15 210.922 215.304 210.214 215.272L208.122 218.613L222.511 219.778C222.511 219.778 224.589 220.606 222.918 221.856C221.248 223.105 213.092 222.796 213.092 222.796L223.466 224.621C223.466 224.621 224.645 225.801 224.14 226.797C223.634 227.794 212.755 226.46 212.755 226.46L221.964 228.973C222.339 229.258 222.608 229.66 222.727 230.116C222.847 230.571 222.81 231.054 222.623 231.486C222.301 232.328 220.293 231.991 219.451 231.655C218.609 231.318 212.586 230.321 212.586 230.321L219.282 233.999C219.216 234.397 219.054 234.772 218.809 235.093C218.564 235.413 218.245 235.669 217.879 235.838C216.891 236.113 215.848 236.113 214.86 235.838L206.157 232.328C206.157 232.328 205.693 233.494 199.236 231.57L199.783 221.842Z" fill="white" stroke="#263238" stroke-linecap="round" stroke-linejoin="round"/>
<path d="M208.15 218.501C208.15 218.501 208.979 224.678 205.792 225.857Z" fill="white"/>
<path d="M208.15 218.501C208.15 218.501 208.979 224.678 205.792 225.857" stroke="#263238" stroke-linecap="round" stroke-linejoin="round"/>
<path d="M400.978 192.797C400.978 192.797 400.445 201.529 395.138 206.484C389.832 211.44 354.905 229.493 351.943 230.349C348.981 231.205 338.143 225.815 343.52 217.279C348.897 208.744 378.166 194.397 384.315 190.116C390.464 185.834 394.998 187.603 394.998 187.603" fill="#92E3A9"/>
<path d="M400.978 192.797C400.978 192.797 400.445 201.529 395.138 206.484C389.832 211.44 354.905 229.493 351.943 230.349C348.981 231.205 338.143 225.815 343.52 217.279C348.897 208.744 378.166 194.397 384.315 190.116C390.464 185.834 394.998 187.603 394.998 187.603" stroke="#263238" stroke-miterlimit="10"/>
<path d="M348.784 214.205C348.784 214.205 342.972 213.419 332.416 210.794C321.859 208.169 294.92 204.266 290.821 203.41L286.735 202.553L285.177 212.057C285.177 212.057 304.831 217.869 318.377 222.825C331.924 227.78 342.818 232.651 355.466 229.268" fill="#92E3A9"/>
<path d="M348.784 214.205C348.784 214.205 342.972 213.419 332.416 210.794C321.859 208.169 294.92 204.266 290.821 203.41L286.735 202.553L285.177 212.057C285.177 212.057 304.831 217.869 318.377 222.825C331.924 227.78 342.818 232.651 355.466 229.268" stroke="#263238" stroke-linecap="round" stroke-linejoin="round"/>
<path d="M286.736 202.539L286.371 200.729C285.778 197.846 284.306 195.217 282.159 193.204V193.204C280.135 192.105 278.27 190.735 276.614 189.133L276.333 188.852C276.333 188.852 273.61 189.063 274.719 191.323C274.97 191.985 275.392 192.569 275.942 193.015C276.492 193.461 277.15 193.754 277.849 193.864L279.253 197.57L264.934 195.773C264.934 195.773 262.716 196.166 264.106 197.724C265.496 199.283 273.498 200.63 273.498 200.63L262.969 200.321C262.969 200.321 261.565 201.22 261.86 202.315C262.155 203.41 273.091 204.308 273.091 204.308L263.573 204.884C263.147 205.084 262.8 205.421 262.586 205.84C262.373 206.259 262.305 206.738 262.393 207.2C262.562 208.099 264.597 208.169 265.482 208.014C266.366 207.86 272.501 208.113 272.501 208.113L265.187 210.345C265.168 210.741 265.243 211.136 265.406 211.497C265.57 211.858 265.817 212.176 266.128 212.422C267.036 212.893 268.055 213.106 269.076 213.04L278.313 211.369C278.313 211.369 278.537 212.605 285.248 212.043L286.736 202.539Z" fill="white" stroke="#263238" stroke-linecap="round" stroke-linejoin="round"/>
<path d="M279.225 197.57C279.225 197.57 277.162 203.452 280.026 205.249Z" fill="white"/>
<path d="M279.225 197.57C279.225 197.57 277.162 203.452 280.026 205.249" stroke="#263238" stroke-linecap="round" stroke-linejoin="round"/>
<path d="M289.108 258.243H209.371V151.454H265.37L289.108 173.199V258.243Z" fill="white" stroke="#263238" stroke-linecap="round" stroke-linejoin="round"/>
<path d="M265.37 151.454V173.199H289.108L265.37 151.454Z" fill="#263238" stroke="#263238" stroke-linecap="round" stroke-linejoin="round"/>
<path d="M297.308 259.252C305.482 250.603 305.096 236.964 296.446 228.79C287.796 220.616 274.158 221.002 265.984 229.652C257.81 238.302 258.196 251.94 266.846 260.114C275.495 268.288 289.134 267.902 297.308 259.252Z" fill="#263238"/>
<path d="M293.249 241.958H284.125V232.848H279.155V241.958H270.044V246.942H279.155V256.053H284.125V246.942H293.249V241.958Z" fill="white"/>
<path d="M328.163 379.266H174.74L157.052 261.022H328.163V379.266Z" fill="#263238" stroke="#263238" stroke-linecap="round" stroke-linejoin="round"/>
<path d="M248.215 261.022L245.913 254.396C245.295 252.621 244.14 251.082 242.608 249.993C241.076 248.904 239.243 248.318 237.364 248.318H175.287V379.265H328.724L346.398 261.022H248.215Z" fill="#92E3A9" stroke="#263238" stroke-linecap="round" stroke-linejoin="round"/>
<path d="M80.5434 436.26C80.5434 436.26 83.9546 443.911 87.3519 446.466C90.7491 449.021 97.1786 448.6 97.9928 452.854C98.807 457.107 95.4379 457.528 92.4618 457.528C89.4857 457.528 80.1222 457.528 78.4236 457.107C73.0588 455.225 68.0303 452.495 63.5291 449.021C58.4333 444.81 57.1558 445.189 60.9882 437.103C64.8206 429.017 80.5434 436.26 80.5434 436.26Z" fill="#92E3A9" stroke="#263238" stroke-miterlimit="10"/>
<path d="M98.1051 453.668C93.9779 454.398 85.8919 455.394 78.7746 453.668C71.6573 451.941 63.2484 445.54 58.9948 442.03C58.1104 445.343 59.781 445.947 63.5292 449.049C68.035 452.498 73.0633 455.204 78.4236 457.065C80.1223 457.486 89.4857 457.486 92.4618 457.486C95.4379 457.486 98.3718 457.149 98.1051 453.668Z" fill="white" stroke="#263238" stroke-miterlimit="10"/>
<path d="M93.304 297.311C93.304 297.311 87.4641 346.304 82.7894 358.644C78.1147 370.983 71.0676 378.788 69.3689 388.124C67.6703 397.459 60.946 437.089 60.946 437.089C60.946 437.089 65.1575 441.3 68.1757 440.921C71.1939 440.542 80.08 441.778 82.635 437.089C85.1899 432.4 85.8217 424.82 86.2428 423.542C86.6639 422.265 104.492 387.773 108.802 374.156C113.112 360.539 126.757 304.302 126.336 297.493" fill="#263238"/>
<path d="M93.304 297.311C93.304 297.311 87.4641 346.304 82.7894 358.644C78.1147 370.983 71.0676 378.788 69.3689 388.124C67.6703 397.459 60.946 437.089 60.946 437.089C60.946 437.089 65.1575 441.3 68.1757 440.921C71.1939 440.542 80.08 441.778 82.635 437.089C85.1899 432.4 85.8217 424.82 86.2428 423.542C86.6639 422.265 104.492 387.773 108.802 374.156C113.112 360.539 126.757 304.302 126.336 297.493" stroke="#263238" stroke-miterlimit="10"/>
<path d="M90.1878 263.703C90.1878 263.703 84.9796 279.019 86.9309 292.706C88.8822 306.393 104.212 313.244 115.007 311.279C125.803 309.313 128.694 301.831 128.694 288.818C128.659 280.765 128.101 272.723 127.024 264.742C114.984 268.591 101.992 268.224 90.1878 263.703Z" fill="#263238" stroke="#263238" stroke-miterlimit="10"/>
<path d="M93.7813 163.977C93.7813 163.977 83.9546 182.226 83.351 196.882C82.7474 211.538 90.1876 263.704 90.1876 263.704C90.1876 263.704 93.1216 269.572 107.146 270.217C121.17 270.863 127.024 266.006 127.024 266.006C127.024 266.006 131.909 232.763 131.909 215.16C131.909 197.556 118.222 171.487 118.222 171.487L93.7813 163.977Z" fill="#92E3A9" stroke="#263238" stroke-miterlimit="10"/>
<path d="M86.2288 204.561C86.2288 204.561 87.0851 214.879 99.565 216.17" stroke="#263238" stroke-linecap="round" stroke-linejoin="round"/>
<path d="M89.6682 218.318C94.2167 221.001 99.5918 221.92 104.773 220.901" stroke="#263238" stroke-linecap="round" stroke-linejoin="round"/>
<path d="M94.3989 264.321C94.3989 264.321 106.865 253.582 113.322 243.685" stroke="#263238" stroke-linecap="round" stroke-linejoin="round"/>
<path d="M112.031 254.003C112.031 254.003 101.278 265.234 97.4033 266.483" stroke="#263238" stroke-linecap="round" stroke-linejoin="round"/>
<path d="M100.941 139.803C100.941 139.803 100.618 148.928 99.6493 155.119C98.6807 161.309 98.3438 163.92 98.3438 163.92L116.27 170.757C116.27 170.757 114.628 158.375 116.916 153.153C118.206 150.365 119.085 147.405 119.527 144.365C119.527 144.365 113.659 130.018 107.469 129.036C101.278 128.053 100.941 139.803 100.941 139.803Z" fill="white" stroke="#263238" stroke-miterlimit="10"/>
<path d="M125.395 113.453C125.395 113.453 128.652 110.519 124.413 100.819C120.173 91.1185 99.6494 91.6941 89.8648 100.482C80.0802 109.27 76.8234 124.936 85.3024 135.03C93.7814 145.123 103.875 146.443 110.403 142.526C116.93 138.61 117.562 131.127 117.562 128.193C117.562 125.259 115.288 118.086 118.545 116.134C120.668 114.875 122.982 113.97 125.395 113.453V113.453Z" fill="#263238" stroke="#263238" stroke-miterlimit="10"/>
<path d="M91.8159 164.622L120.833 176.358L119.204 166.911L93.4443 156.143L91.8159 164.622Z" fill="white" stroke="#263238" stroke-miterlimit="10"/>
<path d="M129.045 447.744C129.045 447.744 137.553 452.854 142.227 454.973C146.902 457.093 147.337 456.672 147.337 459.648C147.337 462.624 147.758 463.059 140.093 463.059C132.429 463.059 110.319 463.48 108.199 461.782C106.079 460.083 126.069 446.466 129.045 447.744Z" fill="#92E3A9" stroke="#263238" stroke-miterlimit="10"/>
<path d="M140.093 463.06C147.267 463.06 147.351 462.681 147.337 460.252C125.536 460.912 114.909 460.084 109.743 459.129C108.339 460.434 107.707 461.445 108.199 461.838C110.388 463.481 132.442 463.06 140.093 463.06Z" fill="white" stroke="#263238" stroke-miterlimit="10"/>
<path d="M124.427 111.165C124.427 111.165 109.111 118.339 109.111 120.992C109.111 123.645 115.625 124.571 113.673 127.842C112.746 129.464 111.644 130.98 110.389 132.363C110.389 132.363 112.986 136.925 110.711 137.571C108.437 138.217 107.455 138.217 105.096 134.96C102.738 131.703 100.534 130.074 99.888 135.619C99.2423 141.165 101.839 142.133 103.791 142.456C105.306 142.636 106.838 142.636 108.353 142.456C108.353 142.456 111.624 150.275 113.898 151.258C116.172 152.241 127.262 153.546 129.537 150.935C131.811 148.324 130.196 136.588 130.196 136.588C130.196 136.588 133.453 135.942 133.453 133.008C133.453 130.074 128.245 125.835 128.245 125.835C128.245 125.835 129.537 123.884 128.568 119.321C127.834 116.32 126.416 113.529 124.427 111.165V111.165Z" fill="white" stroke="#263238" stroke-miterlimit="10"/>
<path d="M124.862 127.281C124.862 128.306 124.455 129.148 123.936 129.148C123.416 129.148 123.009 128.306 123.009 127.281C123.009 126.256 123.416 125.428 123.936 125.428C124.455 125.428 124.862 126.256 124.862 127.281Z" fill="#263238"/>
<path d="M120.735 123.953C120.735 123.953 121.212 121.146 125.437 121.693" stroke="#263238" stroke-linecap="round" stroke-linejoin="round"/>
<path d="M126.252 140.827C124.674 140.69 123.215 139.933 122.195 138.722" stroke="#263238" stroke-linecap="round" stroke-linejoin="round"/>
<path d="M90.7354 298.153C90.7354 298.153 93.7114 327.507 97.5298 340.268C101.348 353.028 101.362 358.517 100.085 369.621C98.8073 380.725 94.5537 390.889 97.5298 401.095C100.506 411.301 106.472 454.973 106.472 456.672C106.472 458.371 106.037 460.883 108.171 461.782C110.305 462.68 128.582 450.299 129.017 447.744C129.453 445.189 126.041 437.538 126.041 430.729C126.041 423.921 128.161 384.081 128.161 364.947C128.161 345.813 130.295 309.215 123.486 292.201" fill="#263238"/>
<path d="M90.7354 298.153C90.7354 298.153 93.7114 327.507 97.5298 340.268C101.348 353.028 101.362 358.517 100.085 369.621C98.8073 380.725 94.5537 390.889 97.5298 401.095C100.506 411.301 106.472 454.973 106.472 456.672C106.472 458.371 106.037 460.883 108.171 461.782C110.305 462.68 128.582 450.299 129.017 447.744C129.453 445.189 126.041 437.538 126.041 430.729C126.041 423.921 128.161 384.081 128.161 364.947C128.161 345.813 130.295 309.215 123.486 292.201" stroke="#263238" stroke-miterlimit="10"/>
<path d="M93.178 316.683C93.178 316.683 95.1854 330.96 97.5579 340.267C99.9303 349.575 102.359 353.941 99.4671 365.536C96.5752 377.132 95.5925 380.978 97.0385 386.818" stroke="white" stroke-linecap="round" stroke-linejoin="round"/>
<path d="M353.333 439.433C353.333 439.433 335.925 445.245 331.784 446.452C327.643 447.66 323.909 448.53 327.643 452.671C331.377 456.813 349.613 457.234 354.989 457.234C360.366 457.234 364.114 460.126 365.349 456.813C366.585 453.5 366.599 444.375 366.599 444.375L353.333 439.433Z" fill="#92E3A9" stroke="#263238" stroke-miterlimit="10"/>
<path d="M365.883 454.833C361.25 454.693 352.504 454.257 342.158 452.924C336.723 452.402 331.386 451.136 326.295 449.162C325.916 449.99 326.295 451.099 327.699 452.699C331.433 456.841 349.669 457.262 355.045 457.262C360.422 457.262 364.17 460.153 365.406 456.84C365.626 456.187 365.786 455.515 365.883 454.833Z" fill="white" stroke="#263238" stroke-miterlimit="10"/>
<path d="M405.962 443.574C405.962 443.574 392.696 453.528 388.976 455.591C385.256 457.655 384.413 460.982 387.726 460.982C391.039 460.982 417.978 461.81 421.713 459.325C425.447 456.84 420.056 444.824 420.056 444.824C420.056 444.824 410.103 443.574 405.962 443.574Z" fill="#92E3A9" stroke="#263238" stroke-miterlimit="10"/>
<path d="M421.713 459.325C422.766 458.623 423.117 457.149 423.004 455.408C410.961 457.528 398.717 458.281 386.505 457.655C385.186 459.353 385.452 460.982 387.783 460.982C391.04 460.982 417.979 461.81 421.713 459.325Z" fill="white" stroke="#263238" stroke-miterlimit="10"/>
<path d="M374.053 251.224C374.053 251.224 355.803 314.62 354.989 329.542C354.175 344.465 353.333 423.696 353.333 427.416V439.433L366.599 444.403C366.599 444.403 372.817 397.501 374.053 386.313C375.288 375.124 376.13 362.686 377.787 356.833C379.443 350.979 382.756 327.352 384.006 322.439C385.255 317.526 388.147 296.749 387.319 273.123C386.491 249.497 376.959 245.412 374.053 251.224Z" fill="#263238" stroke="#263238" stroke-miterlimit="10"/>
<path d="M371.99 246.661C371.99 246.661 372.397 265.304 372.818 283.539C373.239 301.775 371.989 329.542 376.131 349.434C380.272 369.326 396.43 412.508 398.086 419.541C399.743 426.574 405.555 445.245 405.555 445.245C405.555 445.245 414.665 446.073 420.056 444.824C420.056 444.824 414.665 404.548 413.837 388.797C413.009 373.047 403.056 350.67 400.992 345.279C398.929 339.888 405.19 296.805 405.19 296.805C405.19 296.805 415.129 278.556 412.644 266.96C411.229 260.108 407.928 253.787 403.112 248.711C403.112 248.711 378.194 252.108 371.99 246.661Z" fill="#263238" stroke="#263238" stroke-miterlimit="10"/>
<path d="M373.323 272.646C373.323 272.646 372.846 320.544 374.727 334.091C376.608 347.638 378.587 352.972 378.587 352.972" stroke="white" stroke-linecap="round" stroke-linejoin="round"/>
<path d="M402.228 167.879C402.228 167.879 397.258 164.159 386.491 172.091C375.724 180.022 363.286 201.501 364.114 209.797C364.942 218.094 371.989 242.534 371.989 246.675C371.989 250.817 373.225 249.16 378.194 250.817C383.164 252.473 397.258 252.066 400.571 250.41C403.884 248.753 402.228 237.972 403.056 228.861C403.884 219.75 409.275 201.922 408.868 189.077C408.46 176.232 403.884 169.578 402.228 167.879Z" fill="#92E3A9" stroke="#263238" stroke-miterlimit="10"/>
<path d="M381.928 120.683C381.928 120.683 376.959 126.902 376.959 131.043C376.959 135.184 376.032 139.466 373.548 141.502C371.063 143.537 371.147 145.545 373.225 145.966L375.302 146.373C375.302 146.373 376.468 155.413 378.11 158.74C379.752 162.067 385.648 159.218 386.884 158.74C388.119 158.263 386.477 170.757 386.477 172.006C386.477 173.256 398.9 171.585 400.515 171.585C402.129 171.585 401.343 156.663 403 152.114C404.656 147.566 410.019 141.754 403.421 131.801C396.823 121.848 385.662 113.636 381.928 120.683Z" fill="white" stroke="#263238" stroke-miterlimit="10"/>
<path d="M380.118 139.157C380.118 140.182 380.525 141.01 381.044 141.01C381.564 141.01 381.971 140.182 381.971 139.157C381.971 138.132 381.564 137.29 381.044 137.29C380.525 137.29 380.118 138.132 380.118 139.157Z" fill="#263238"/>
<path d="M377.591 149.63C377.591 149.63 378.994 151.244 382.167 149.082" stroke="#263238" stroke-linecap="round" stroke-linejoin="round"/>
<path d="M378.672 133.963C378.672 133.963 381.086 131.001 384.048 134.777" stroke="#263238" stroke-linecap="round" stroke-linejoin="round"/>
<path d="M393.692 167.149C393.692 167.149 382.939 171.01 381.212 173.593C379.486 176.176 378.208 180.471 380.791 180.471C383.374 180.471 394.535 172.961 397.553 172.301C400.571 171.641 397.553 163.275 393.692 167.149Z" fill="white" stroke="#263238" stroke-miterlimit="10"/>
<path d="M381.928 120.683C382.955 126.226 385.22 131.467 388.554 136.012C393.945 143.031 399.336 141.403 398.086 147.243C396.837 153.083 387.726 161.281 391.46 170.462C395.194 179.643 403.477 181.229 405.133 184.963C406.79 188.698 410.524 189.933 406.383 204.855C402.241 219.778 396.023 231.781 401.399 245.875C406.776 259.969 420.884 263.689 431.651 258.72C442.419 253.75 435.793 238 438.291 228.468C440.79 218.936 462.325 211.482 454.856 184.949C447.388 158.417 429.995 151.384 425.376 142.259C420.758 133.135 421.656 117.819 412.124 111.6C402.592 105.381 391.811 110.772 388.091 111.6C384.371 112.428 382.279 106.209 374.825 109.115C367.371 112.021 362.921 125.961 376.229 128.881C377.625 125.831 379.555 123.054 381.928 120.683V120.683Z" fill="#263238" stroke="#263238" stroke-miterlimit="10"/>
<path d="M395.63 140.533C398.229 143.228 401.341 145.376 404.783 146.85C420.225 153.616 430.908 163.303 430.908 179.741C430.908 196.18 415.466 207.326 414.932 221.364C414.399 235.403 422.19 246.029 430.374 241.678C438.559 237.326 434.74 228.622 431.778 228.622" stroke="white" stroke-linecap="round" stroke-linejoin="round"/>
<path d="M388.344 125.077C388.662 127.975 389.479 130.796 390.759 133.415" stroke="white" stroke-linecap="round" stroke-linejoin="round"/>
<path d="M438.741 170.926C441.859 177.801 443.477 185.262 443.486 192.811C442.994 209.741 422.681 217.49 420.253 227.654C418.077 236.793 424.618 245.061 430.416 241.692" stroke="white" stroke-linecap="round" stroke-linejoin="round"/>
<path d="M432.845 159.906C434.211 161.951 435.448 164.08 436.551 166.279" stroke="white" stroke-linecap="round" stroke-linejoin="round"/>
<path d="M410.103 192.811C412.066 186.317 411.894 179.364 409.612 172.975C405.737 162.811 401.385 157.968 401.385 152.648" stroke="white" stroke-linecap="round" stroke-linejoin="round"/>
<path d="M381.929 120.683C381.201 119.417 380.163 118.356 378.913 117.599C377.664 116.843 376.243 116.417 374.783 116.359C369.94 116.359 370.417 122.648 375.738 123.617" stroke="white" stroke-linecap="round" stroke-linejoin="round"/>
<path d="M97.5575 181.608C97.5575 181.608 91.6054 190.115 92.8828 198.622C94.1603 207.13 113.308 249.665 115.428 252.641C117.548 255.617 131.586 258.607 132.863 246.689C134.141 234.771 117.562 199.9 115.007 191.393C112.452 182.886 106.921 181.187 106.921 181.187" fill="#92E3A9"/>
<path d="M97.5575 181.608C97.5575 181.608 91.6054 190.115 92.8828 198.622C94.1603 207.13 113.308 249.665 115.428 252.641C117.548 255.617 131.586 258.607 132.863 246.689C134.141 234.771 117.562 199.9 115.007 191.393C112.452 182.886 106.921 181.187 106.921 181.187" stroke="#263238" stroke-miterlimit="10"/>
<path d="M129.705 237.789C129.705 237.789 142.171 239.375 150.902 244.654C159.634 249.932 187.402 259.815 187.402 259.815L185.408 268.055C185.408 268.055 154.847 264.532 141.89 262.145C128.933 259.759 120.524 258.622 115.737 251.743" fill="#92E3A9"/>
<path d="M129.705 237.789C129.705 237.789 142.171 239.375 150.902 244.654C159.634 249.932 187.402 259.815 187.402 259.815L185.408 268.055C185.408 268.055 154.847 264.532 141.89 262.145C128.933 259.759 120.524 258.622 115.737 251.743" stroke="#263238" stroke-miterlimit="10"/>
<path d="M212.656 270.259L201.314 266.708L201.44 265.514C201.44 265.514 211.112 267.381 212.165 267.508C213.218 267.634 213.569 267.115 213.569 266.455C213.5 265.955 213.268 265.491 212.909 265.135L197.046 259.436L206.157 257.723C207.476 256.67 206.016 255.617 206.016 255.617L195.319 255.87L187.43 259.815L185.437 268.055C185.437 268.055 200.078 280.69 200.738 281.097C201.398 281.504 201.791 282.15 202.844 281.49C203.897 280.83 203.504 280.086 203.504 280.086L198.829 275.285L206.887 277.657C207.799 277.924 207.94 278.191 208.599 277.924C209.259 277.657 209.386 275.945 209.386 275.945L200.008 271.593L200.415 270.666C200.415 270.666 210.817 273.165 211.463 273.165C212.109 273.165 212.516 273.165 213.05 271.986C213.216 271.702 213.269 271.365 213.196 271.045C213.122 270.724 212.93 270.443 212.656 270.259V270.259Z" fill="white" stroke="#263238" stroke-linecap="round" stroke-linejoin="round"/>
<path d="M404.923 185.287C404.923 185.287 399.167 177.299 391.053 182.479C382.939 187.659 353.515 214.921 353.515 214.921C353.515 214.921 347.563 221.94 356.323 227.078C365.083 232.216 401.02 200.265 404.909 197.598" fill="#92E3A9"/>
<path d="M404.923 185.287C404.923 185.287 399.167 177.299 391.053 182.479C382.939 187.659 353.515 214.921 353.515 214.921C353.515 214.921 347.563 221.94 356.323 227.078C365.083 232.216 401.02 200.265 404.909 197.598" stroke="#263238" stroke-miterlimit="10"/>
<path d="M359.453 215.047C359.453 215.047 355.088 212.31 345.163 210.569C335.238 208.829 301.139 189.835 301.139 189.835L295.524 196.854C295.524 196.854 319.515 214.5 332.023 222.053C344.531 229.605 350.118 231.598 354.133 231.191C358.148 230.784 367.511 222.01 367.511 222.01" fill="#92E3A9"/>
<path d="M359.453 215.047C359.453 215.047 355.088 212.31 345.163 210.569C335.238 208.829 301.139 189.835 301.139 189.835L295.524 196.854C295.524 196.854 319.515 214.5 332.023 222.053C344.531 229.605 350.118 231.598 354.133 231.191C358.148 230.784 367.511 222.01 367.511 222.01" stroke="#263238" stroke-miterlimit="10"/>
<path d="M277.597 174.631L286.666 181.861L287.55 181.117C287.55 181.117 280.784 174.323 280.11 173.537C279.436 172.75 279.632 172.133 280.11 171.782C280.547 171.576 281.038 171.512 281.514 171.599L294.738 181.328L291.172 173.031C291.312 171.389 292.955 171.992 292.955 171.992L298.57 180.78L300.311 189.428L295.959 197.247C295.959 197.247 275.926 190.438 275.253 190.13C274.579 189.821 273.849 189.849 273.779 188.628C273.708 187.406 274.593 187.308 274.593 187.308L281.022 188.557L274.789 183.321C274.073 182.717 273.793 182.76 273.638 182.072C273.484 181.384 274.817 180.359 274.817 180.359L283.437 185.567L283.97 184.739C283.97 184.739 276.263 177.72 275.898 177.144C275.533 176.569 275.323 176.288 275.997 175.221C276.136 174.936 276.381 174.716 276.679 174.606C276.977 174.496 277.306 174.505 277.597 174.631V174.631Z" fill="white" stroke="#263238" stroke-linecap="round" stroke-linejoin="round"/>
<path d="M220.76 210C220.643 210 220.552 209.968 220.488 209.904C220.424 209.829 220.392 209.739 220.392 209.632V199.184C220.392 199.067 220.424 198.976 220.488 198.912C220.552 198.837 220.643 198.8 220.76 198.8H224.824C225.613 198.8 226.296 198.928 226.872 199.184C227.459 199.44 227.912 199.824 228.232 200.336C228.552 200.837 228.712 201.467 228.712 202.224C228.712 202.981 228.552 203.611 228.232 204.112C227.912 204.613 227.459 204.992 226.872 205.248C226.296 205.504 225.613 205.632 224.824 205.632H221.992V209.632C221.992 209.739 221.955 209.829 221.88 209.904C221.816 209.968 221.725 210 221.608 210H220.76ZM221.976 204.288H224.744C225.533 204.288 226.125 204.112 226.52 203.76C226.915 203.408 227.112 202.896 227.112 202.224C227.112 201.563 226.92 201.051 226.536 200.688C226.152 200.325 225.555 200.144 224.744 200.144H221.976V204.288ZM230.818 210C230.711 210 230.62 209.968 230.546 209.904C230.482 209.829 230.45 209.739 230.45 209.632V202.064C230.45 201.957 230.482 201.867 230.546 201.792C230.62 201.717 230.711 201.68 230.818 201.68H231.554C231.66 201.68 231.751 201.717 231.826 201.792C231.9 201.867 231.938 201.957 231.938 202.064V202.768C232.151 202.405 232.444 202.133 232.818 201.952C233.191 201.771 233.639 201.68 234.162 201.68H234.802C234.908 201.68 234.994 201.717 235.058 201.792C235.122 201.856 235.154 201.941 235.154 202.048V202.704C235.154 202.811 235.122 202.896 235.058 202.96C234.994 203.024 234.908 203.056 234.802 203.056H233.842C233.266 203.056 232.812 203.227 232.482 203.568C232.151 203.899 231.986 204.352 231.986 204.928V209.632C231.986 209.739 231.948 209.829 231.874 209.904C231.799 209.968 231.708 210 231.602 210H230.818ZM239.78 210.16C238.969 210.16 238.292 210.005 237.748 209.696C237.204 209.387 236.788 208.96 236.5 208.416C236.212 207.861 236.052 207.232 236.02 206.528C236.009 206.347 236.004 206.117 236.004 205.84C236.004 205.552 236.009 205.323 236.02 205.152C236.052 204.437 236.212 203.808 236.5 203.264C236.798 202.72 237.22 202.293 237.764 201.984C238.308 201.675 238.98 201.52 239.78 201.52C240.58 201.52 241.252 201.675 241.796 201.984C242.34 202.293 242.756 202.72 243.044 203.264C243.342 203.808 243.508 204.437 243.54 205.152C243.55 205.323 243.556 205.552 243.556 205.84C243.556 206.117 243.55 206.347 243.54 206.528C243.508 207.232 243.348 207.861 243.06 208.416C242.772 208.96 242.356 209.387 241.812 209.696C241.268 210.005 240.59 210.16 239.78 210.16ZM239.78 208.928C240.441 208.928 240.969 208.72 241.364 208.304C241.758 207.877 241.972 207.259 242.004 206.448C242.014 206.288 242.02 206.085 242.02 205.84C242.02 205.595 242.014 205.392 242.004 205.232C241.972 204.421 241.758 203.808 241.364 203.392C240.969 202.965 240.441 202.752 239.78 202.752C239.118 202.752 238.585 202.965 238.18 203.392C237.785 203.808 237.577 204.421 237.556 205.232C237.545 205.392 237.539 205.595 237.539 205.84C237.539 206.085 237.545 206.288 237.556 206.448C237.577 207.259 237.785 207.877 238.18 208.304C238.585 208.72 239.118 208.928 239.78 208.928ZM248.599 210.16C248.012 210.16 247.506 210.059 247.079 209.856C246.652 209.643 246.3 209.36 246.023 209.008C245.756 208.645 245.554 208.235 245.415 207.776C245.287 207.317 245.212 206.832 245.191 206.32C245.18 206.149 245.175 205.989 245.175 205.84C245.175 205.691 245.18 205.531 245.191 205.36C245.212 204.859 245.287 204.379 245.415 203.92C245.554 203.461 245.756 203.051 246.023 202.688C246.3 202.325 246.652 202.043 247.079 201.84C247.506 201.627 248.012 201.52 248.599 201.52C249.228 201.52 249.751 201.632 250.167 201.856C250.583 202.08 250.924 202.357 251.191 202.688V199.008C251.191 198.901 251.223 198.816 251.287 198.752C251.362 198.677 251.452 198.64 251.559 198.64H252.327C252.434 198.64 252.519 198.677 252.583 198.752C252.658 198.816 252.695 198.901 252.695 199.008V209.632C252.695 209.739 252.658 209.829 252.583 209.904C252.519 209.968 252.434 210 252.327 210H251.607C251.49 210 251.399 209.968 251.335 209.904C251.271 209.829 251.239 209.739 251.239 209.632V208.96C250.972 209.301 250.626 209.589 250.199 209.824C249.772 210.048 249.239 210.16 248.599 210.16ZM248.935 208.864C249.468 208.864 249.895 208.741 250.215 208.496C250.535 208.251 250.775 207.941 250.935 207.568C251.095 207.184 251.18 206.795 251.191 206.4C251.202 206.229 251.207 206.027 251.207 205.792C251.207 205.547 251.202 205.339 251.191 205.168C251.18 204.795 251.09 204.427 250.919 204.064C250.759 203.701 250.514 203.403 250.183 203.168C249.863 202.933 249.447 202.816 248.935 202.816C248.391 202.816 247.959 202.939 247.639 203.184C247.319 203.419 247.09 203.733 246.951 204.128C246.812 204.512 246.732 204.928 246.711 205.376C246.7 205.685 246.7 205.995 246.711 206.304C246.732 206.752 246.812 207.173 246.951 207.568C247.09 207.952 247.319 208.267 247.639 208.512C247.959 208.747 248.391 208.864 248.935 208.864ZM258.179 210.16C257.496 210.16 256.915 210.011 256.435 209.712C255.965 209.403 255.608 208.976 255.363 208.432C255.117 207.888 254.995 207.264 254.995 206.56V202.048C254.995 201.941 255.027 201.856 255.091 201.792C255.165 201.717 255.256 201.68 255.363 201.68H256.163C256.269 201.68 256.355 201.717 256.419 201.792C256.493 201.856 256.531 201.941 256.531 202.048V206.48C256.531 208.069 257.224 208.864 258.611 208.864C259.272 208.864 259.8 208.656 260.195 208.24C260.6 207.813 260.803 207.227 260.803 206.48V202.048C260.803 201.941 260.835 201.856 260.899 201.792C260.973 201.717 261.064 201.68 261.171 201.68H261.955C262.072 201.68 262.163 201.717 262.227 201.792C262.291 201.856 262.323 201.941 262.323 202.048V209.632C262.323 209.739 262.291 209.829 262.227 209.904C262.163 209.968 262.072 210 261.955 210H261.219C261.112 210 261.021 209.968 260.947 209.904C260.883 209.829 260.851 209.739 260.851 209.632V208.928C260.563 209.301 260.211 209.6 259.795 209.824C259.389 210.048 258.851 210.16 258.179 210.16ZM268.06 210.16C267.302 210.16 266.646 210.016 266.092 209.728C265.548 209.429 265.126 209.008 264.828 208.464C264.529 207.909 264.369 207.248 264.348 206.48C264.337 206.32 264.332 206.107 264.332 205.84C264.332 205.573 264.337 205.36 264.348 205.2C264.369 204.432 264.529 203.776 264.828 203.232C265.126 202.677 265.548 202.256 266.092 201.968C266.646 201.669 267.302 201.52 268.06 201.52C268.678 201.52 269.206 201.605 269.644 201.776C270.092 201.947 270.46 202.165 270.748 202.432C271.036 202.699 271.249 202.987 271.388 203.296C271.537 203.605 271.617 203.899 271.628 204.176C271.638 204.283 271.606 204.368 271.532 204.432C271.457 204.496 271.366 204.528 271.26 204.528H270.492C270.385 204.528 270.305 204.507 270.252 204.464C270.198 204.411 270.145 204.325 270.092 204.208C269.9 203.685 269.638 203.317 269.308 203.104C268.977 202.891 268.566 202.784 268.076 202.784C267.436 202.784 266.913 202.981 266.508 203.376C266.113 203.771 265.9 204.405 265.868 205.28C265.857 205.664 265.857 206.037 265.868 206.4C265.9 207.285 266.113 207.925 266.508 208.32C266.913 208.704 267.436 208.896 268.076 208.896C268.566 208.896 268.977 208.789 269.308 208.576C269.638 208.363 269.9 207.995 270.092 207.472C270.145 207.355 270.198 207.275 270.252 207.232C270.305 207.179 270.385 207.152 270.492 207.152H271.26C271.366 207.152 271.457 207.184 271.532 207.248C271.606 207.312 271.638 207.397 271.628 207.504C271.617 207.728 271.569 207.957 271.484 208.192C271.398 208.427 271.26 208.667 271.068 208.912C270.886 209.147 270.657 209.36 270.38 209.552C270.102 209.733 269.766 209.883 269.372 210C268.988 210.107 268.55 210.16 268.06 210.16ZM276.776 210C276.178 210 275.693 209.888 275.32 209.664C274.946 209.429 274.674 209.104 274.504 208.688C274.333 208.261 274.248 207.76 274.248 207.184V202.96H273C272.893 202.96 272.802 202.928 272.728 202.864C272.664 202.789 272.632 202.699 272.632 202.592V202.048C272.632 201.941 272.664 201.856 272.728 201.792C272.802 201.717 272.893 201.68 273 201.68H274.248V199.008C274.248 198.901 274.28 198.816 274.344 198.752C274.418 198.677 274.509 198.64 274.616 198.64H275.368C275.474 198.64 275.56 198.677 275.624 198.752C275.698 198.816 275.736 198.901 275.736 199.008V201.68H277.72C277.826 201.68 277.912 201.717 277.976 201.792C278.05 201.856 278.088 201.941 278.088 202.048V202.592C278.088 202.699 278.05 202.789 277.976 202.864C277.912 202.928 277.826 202.96 277.72 202.96H275.736V207.072C275.736 207.573 275.821 207.968 275.992 208.256C276.162 208.544 276.466 208.688 276.904 208.688H277.88C277.986 208.688 278.072 208.725 278.136 208.8C278.21 208.864 278.248 208.949 278.248 209.056V209.632C278.248 209.739 278.21 209.829 278.136 209.904C278.072 209.968 277.986 210 277.88 210H276.776Z" fill="black"/>
</svg>
