<svg width="505" height="504" viewBox="0 0 505 504" fill="none" xmlns="http://www.w3.org/2000/svg">
<g clip-path="url(#clip0_45_243)">
<path d="M453.447 73.4595C422.509 2.91617 348.247 -23.6448 289.654 23.7198C266.774 42.1981 252.499 71.6067 224.483 83.4074C198.195 94.4745 164.895 91.2165 136.468 97.2102C75.9351 109.894 -5.56332 158.017 0.654137 232.166C3.37738 264.646 25.2877 300.72 36.1185 331.111C48.5534 366.078 56.0144 409.824 88.9296 430.727C145.359 466.614 213.428 437.28 264.262 408.344C291.619 392.788 306.678 383.226 336.136 388.56C363.406 393.534 387.965 410.943 414.613 390.289C434.62 374.782 436.274 343.359 453.074 324.906C472 304.115 491.187 302.61 501.023 271.361C512.948 233.447 495.377 209.759 483.502 175.886C471.627 142.013 468.021 106.648 453.447 73.4595Z" fill="#90CAF9"/>
<g opacity="0.7">
<path opacity="0.7" d="M453.447 73.4595C422.509 2.91617 348.247 -23.6448 289.654 23.7198C266.774 42.1981 252.499 71.6067 224.483 83.4074C198.195 94.4745 164.895 91.2165 136.468 97.2102C75.9351 109.894 -5.56332 158.017 0.654137 232.166C3.37738 264.646 25.2877 300.72 36.1185 331.111C48.5534 366.078 56.0144 409.824 88.9296 430.727C145.359 466.614 213.428 437.28 264.262 408.344C291.619 392.788 306.678 383.226 336.136 388.56C363.406 393.534 387.965 410.943 414.613 390.289C434.62 374.782 436.274 343.359 453.074 324.906C472 304.115 491.187 302.61 501.023 271.361C512.948 233.447 495.377 209.759 483.502 175.886C471.627 142.013 468.021 106.648 453.447 73.4595Z" fill="white"/>
</g>
<path d="M218.029 489.631C324.189 489.631 410.248 484.27 410.248 477.656C410.248 471.043 324.189 465.681 218.029 465.681C111.869 465.681 25.8101 471.043 25.8101 477.656C25.8101 484.27 111.869 489.631 218.029 489.631Z" fill="#90CAF9"/>
<path opacity="0.8" d="M218.029 489.631C324.189 489.631 410.248 484.27 410.248 477.656C410.248 471.043 324.189 465.681 218.029 465.681C111.869 465.681 25.8101 471.043 25.8101 477.656C25.8101 484.27 111.869 489.631 218.029 489.631Z" fill="white"/>
<path d="M362.473 22.3022H169.197C155.853 22.3022 145.036 33.1195 145.036 46.4633V454.503C145.036 467.846 155.853 478.664 169.197 478.664H362.473C375.817 478.664 386.634 467.846 386.634 454.503V46.4633C386.634 33.1195 375.817 22.3022 362.473 22.3022Z" fill="#263238"/>
<path d="M375.89 72.415H155.767V428.551H375.89V72.415Z" fill="white" stroke="#263238" stroke-width="1.33739" stroke-miterlimit="10"/>
<path d="M299.573 216.625C318.206 197.992 318.206 167.782 299.573 149.149C280.939 130.516 250.729 130.516 232.096 149.149C213.463 167.782 213.463 197.992 232.096 216.625C250.729 235.258 280.94 235.258 299.573 216.625Z" fill="#90CAF9"/>
<path d="M328.476 406.156H203.206C202.925 406.157 202.645 406.103 202.384 405.997C202.123 405.89 201.886 405.733 201.686 405.534C201.486 405.335 201.327 405.099 201.219 404.838C201.111 404.578 201.055 404.299 201.055 404.017C201.054 403.734 201.108 403.454 201.216 403.192C201.323 402.93 201.482 402.692 201.682 402.492C201.882 402.292 202.12 402.134 202.381 402.026C202.643 401.919 202.923 401.864 203.206 401.866H328.476C328.758 401.866 329.037 401.921 329.297 402.03C329.557 402.138 329.794 402.297 329.993 402.497C330.191 402.697 330.349 402.934 330.455 403.195C330.562 403.456 330.616 403.735 330.615 404.017C330.615 404.584 330.389 405.128 329.988 405.529C329.587 405.93 329.043 406.156 328.476 406.156Z" fill="#90CAF9"/>
<path d="M332.554 257.422H199.115C196.361 257.422 194.129 259.654 194.129 262.408V278.138C194.129 280.892 196.361 283.125 199.115 283.125H332.554C335.308 283.125 337.541 280.892 337.541 278.138V262.408C337.541 259.654 335.308 257.422 332.554 257.422Z" fill="#90CAF9"/>
<path d="M332.554 305.495H199.115C196.361 305.495 194.129 307.728 194.129 310.481V326.212C194.129 328.966 196.361 331.198 199.115 331.198H332.554C335.308 331.198 337.541 328.966 337.541 326.212V310.481C337.541 307.728 335.308 305.495 332.554 305.495Z" fill="#90CAF9"/>
<path d="M289.592 206.687L275.553 198.605V191.927C277.586 189.468 279.058 186.595 279.868 183.509C280.351 183.68 280.86 183.769 281.372 183.77C283.113 183.77 284.22 178.373 284.407 174.518C286.434 170.228 283.673 167.716 283.673 167.716C283.673 167.716 284.817 166.572 285.576 161.984C286.334 157.395 282.902 159.31 280.228 155.107C277.555 150.904 275.64 146.328 266.861 146.328C264.442 146.249 262.055 146.899 260.01 148.194C257.966 149.489 256.358 151.369 255.396 153.59C253.211 153.598 251.033 153.853 248.905 154.349C246.219 155.107 245.46 163.899 247.748 167.343C248.773 169.226 249.319 171.331 249.34 173.474C248.731 172.728 248.097 172.529 247.748 174.22C246.99 178.037 250.049 183.384 250.049 183.384L251.628 182.937C252.424 186.235 253.959 189.309 256.117 191.927V198.605L242.078 206.687C240.439 207.634 239.077 208.995 238.13 210.634C237.182 212.273 236.683 214.133 236.681 216.026V220.652C245.031 227.102 255.284 230.601 265.835 230.601C276.386 230.601 286.639 227.102 294.989 220.652V216.026C294.99 214.132 294.491 212.272 293.544 210.632C292.596 208.993 291.233 207.632 289.592 206.687V206.687Z" fill="#263238"/>
<path d="M212.297 324.807C211.975 324.802 211.667 324.673 211.439 324.446C211.316 324.337 211.219 324.202 211.152 324.052C211.086 323.902 211.052 323.74 211.053 323.576C211.057 323.351 211.121 323.132 211.24 322.941L213.478 319.36L209.113 319.497C208.949 319.507 208.784 319.483 208.63 319.425C208.475 319.367 208.335 319.277 208.218 319.161C208.015 318.933 207.903 318.639 207.903 318.334C207.903 318.029 208.015 317.735 208.218 317.507C208.332 317.387 208.472 317.294 208.627 317.233C208.781 317.173 208.948 317.148 209.113 317.159L213.416 317.321L211.202 313.752C211.082 313.558 211.017 313.334 211.016 313.105C211.015 312.941 211.048 312.779 211.115 312.629C211.181 312.478 211.279 312.344 211.401 312.235C211.63 312.008 211.937 311.879 212.259 311.874C212.471 311.876 212.678 311.937 212.857 312.052C213.035 312.166 213.177 312.329 213.266 312.521L215.393 316.363L217.494 312.546C217.594 312.342 217.748 312.17 217.938 312.047C218.129 311.924 218.349 311.856 218.576 311.849C218.733 311.85 218.889 311.884 219.032 311.948C219.175 312.012 219.304 312.106 219.409 312.222C219.638 312.459 219.763 312.777 219.757 313.105C219.757 313.319 219.701 313.529 219.596 313.715L217.345 317.321L221.71 317.159C221.875 317.148 222.041 317.173 222.196 317.233C222.351 317.294 222.491 317.387 222.605 317.507C222.817 317.727 222.933 318.022 222.928 318.328C222.928 318.636 222.812 318.933 222.605 319.161C222.488 319.277 222.348 319.367 222.193 319.425C222.039 319.483 221.874 319.507 221.71 319.497L217.32 319.36L219.509 322.904C219.631 323.102 219.696 323.33 219.695 323.563C219.695 323.893 219.564 324.209 219.331 324.442C219.098 324.676 218.782 324.807 218.452 324.807C218.239 324.804 218.031 324.739 217.854 324.619C217.677 324.5 217.539 324.332 217.457 324.135L215.38 320.405L213.316 324.135C213.225 324.33 213.081 324.496 212.901 324.615C212.721 324.733 212.512 324.799 212.297 324.807V324.807Z" fill="#263238"/>
<path d="M232.466 324.807C232.144 324.802 231.836 324.673 231.608 324.446C231.485 324.337 231.388 324.202 231.321 324.052C231.255 323.902 231.221 323.74 231.222 323.576C231.226 323.351 231.29 323.132 231.409 322.941L233.647 319.36L229.295 319.497C229.129 319.504 228.963 319.479 228.807 319.421C228.651 319.363 228.508 319.275 228.387 319.161C228.222 318.991 228.112 318.775 228.071 318.541C228.031 318.308 228.061 318.067 228.159 317.851C228.257 317.635 228.418 317.454 228.62 317.33C228.823 317.207 229.058 317.147 229.295 317.159L233.585 317.321L231.371 313.752C231.251 313.558 231.186 313.334 231.185 313.105C231.184 312.941 231.217 312.779 231.284 312.629C231.35 312.478 231.448 312.344 231.57 312.235C231.799 312.008 232.106 311.879 232.428 311.874C232.64 311.876 232.847 311.937 233.026 312.052C233.204 312.166 233.346 312.329 233.436 312.521L235.562 316.363L237.664 312.546C237.763 312.342 237.917 312.17 238.107 312.047C238.298 311.924 238.519 311.856 238.745 311.849C238.903 311.849 239.058 311.882 239.202 311.946C239.346 312.01 239.474 312.105 239.578 312.222C239.694 312.339 239.785 312.476 239.847 312.628C239.909 312.779 239.94 312.942 239.939 313.105C239.935 313.32 239.875 313.53 239.765 313.715L237.514 317.321L241.891 317.184C242.055 317.173 242.219 317.198 242.372 317.259C242.525 317.319 242.662 317.412 242.774 317.532C242.986 317.752 243.102 318.047 243.098 318.353C243.097 318.661 242.982 318.958 242.774 319.186C242.659 319.302 242.521 319.391 242.369 319.449C242.217 319.507 242.054 319.532 241.891 319.522L237.489 319.385L239.678 322.929C239.801 323.127 239.865 323.355 239.864 323.588C239.864 323.918 239.733 324.234 239.5 324.467C239.267 324.7 238.951 324.831 238.621 324.831C238.408 324.829 238.2 324.764 238.023 324.644C237.847 324.525 237.709 324.357 237.626 324.16L235.55 320.429L233.485 324.16C233.39 324.35 233.245 324.511 233.065 324.625C232.886 324.739 232.678 324.802 232.466 324.807V324.807Z" fill="#263238"/>
<path d="M252.648 324.807C252.322 324.805 252.009 324.676 251.777 324.446C251.655 324.337 251.557 324.202 251.491 324.052C251.424 323.902 251.391 323.74 251.392 323.576C251.396 323.351 251.46 323.132 251.578 322.941L253.817 319.36L249.465 319.497C249.23 319.506 248.998 319.446 248.799 319.323C248.599 319.2 248.44 319.02 248.343 318.807C248.245 318.593 248.214 318.356 248.252 318.124C248.29 317.893 248.396 317.678 248.557 317.507C248.674 317.388 248.816 317.294 248.973 317.234C249.129 317.174 249.297 317.149 249.465 317.159L253.755 317.321L251.541 313.752C251.421 313.558 251.356 313.334 251.355 313.105C251.359 312.942 251.395 312.781 251.461 312.632C251.527 312.482 251.622 312.348 251.74 312.235C251.972 312.005 252.284 311.876 252.611 311.874C252.82 311.878 253.025 311.941 253.201 312.055C253.377 312.169 253.517 312.331 253.605 312.521L255.732 316.363L257.833 312.546C257.933 312.342 258.086 312.17 258.277 312.047C258.468 311.924 258.688 311.856 258.915 311.849C259.072 311.849 259.228 311.882 259.372 311.946C259.516 312.01 259.644 312.105 259.748 312.222C259.863 312.339 259.955 312.476 260.017 312.628C260.078 312.779 260.11 312.942 260.109 313.105C260.104 313.32 260.044 313.53 259.935 313.715L257.684 317.321L262.061 317.159C262.222 317.143 262.385 317.162 262.538 317.214C262.691 317.266 262.831 317.35 262.949 317.461C263.067 317.571 263.159 317.706 263.221 317.856C263.282 318.005 263.311 318.166 263.305 318.328C263.307 318.635 263.196 318.931 262.994 319.161C262.877 319.277 262.736 319.367 262.582 319.425C262.428 319.483 262.263 319.507 262.098 319.497L257.709 319.36L259.885 322.904C260.008 323.102 260.072 323.33 260.071 323.563C260.068 323.726 260.031 323.887 259.965 324.037C259.899 324.186 259.804 324.321 259.686 324.434C259.578 324.55 259.447 324.643 259.302 324.707C259.156 324.771 258.999 324.805 258.84 324.807C258.629 324.803 258.423 324.737 258.249 324.618C258.074 324.499 257.938 324.331 257.858 324.135L255.769 320.405L253.705 324.135C253.612 324.337 253.463 324.507 253.275 324.626C253.088 324.745 252.87 324.808 252.648 324.807V324.807Z" fill="#263238"/>
<path d="M272.817 324.807C272.491 324.805 272.178 324.676 271.947 324.446C271.712 324.216 271.578 323.904 271.574 323.576C271.57 323.352 271.63 323.132 271.748 322.941L273.986 319.36L269.634 319.497C269.468 319.504 269.302 319.479 269.146 319.421C268.99 319.363 268.847 319.275 268.726 319.161C268.523 318.933 268.411 318.639 268.411 318.334C268.411 318.029 268.523 317.735 268.726 317.507C268.846 317.391 268.988 317.301 269.144 317.241C269.3 317.181 269.467 317.153 269.634 317.159L273.936 317.321L271.735 313.752C271.615 313.558 271.55 313.334 271.549 313.105C271.553 312.942 271.589 312.781 271.655 312.632C271.721 312.482 271.816 312.348 271.934 312.235C272.166 312.005 272.478 311.876 272.805 311.874C273.016 311.876 273.224 311.937 273.402 312.052C273.58 312.166 273.722 312.329 273.812 312.521L275.926 316.363L278.027 312.546C278.127 312.342 278.28 312.17 278.471 312.047C278.662 311.924 278.882 311.856 279.109 311.849C279.266 311.849 279.422 311.882 279.566 311.946C279.71 312.01 279.838 312.105 279.942 312.222C280.057 312.339 280.149 312.476 280.211 312.628C280.272 312.779 280.304 312.942 280.303 313.105C280.298 313.32 280.238 313.53 280.129 313.715L277.878 317.321L282.255 317.159C282.416 317.143 282.579 317.162 282.732 317.214C282.885 317.266 283.025 317.35 283.143 317.461C283.261 317.571 283.353 317.706 283.415 317.856C283.476 318.005 283.505 318.166 283.499 318.328C283.501 318.635 283.391 318.931 283.188 319.161C283.071 319.277 282.93 319.367 282.776 319.425C282.622 319.483 282.457 319.507 282.292 319.497L277.903 319.36L280.079 322.904C280.202 323.102 280.266 323.33 280.266 323.563C280.267 323.727 280.233 323.89 280.167 324.04C280.1 324.19 280.002 324.324 279.88 324.434C279.772 324.55 279.641 324.643 279.496 324.707C279.35 324.771 279.193 324.805 279.034 324.807C278.823 324.803 278.617 324.737 278.443 324.618C278.268 324.499 278.132 324.331 278.052 324.135L275.963 320.405L273.899 324.135C273.804 324.341 273.651 324.514 273.459 324.633C273.266 324.752 273.043 324.813 272.817 324.807Z" fill="#263238"/>
<path d="M292.986 324.807C292.66 324.805 292.348 324.676 292.116 324.446C291.923 324.251 291.801 323.997 291.767 323.725C291.733 323.453 291.79 323.178 291.929 322.941L294.155 319.36L289.803 319.497C289.637 319.504 289.471 319.479 289.315 319.421C289.159 319.363 289.017 319.275 288.895 319.161C288.693 318.933 288.581 318.639 288.581 318.334C288.581 318.029 288.693 317.735 288.895 317.507C289.016 317.391 289.158 317.301 289.314 317.241C289.47 317.181 289.636 317.153 289.803 317.159L294.106 317.321L291.892 313.752C291.772 313.558 291.707 313.334 291.706 313.105C291.71 312.777 291.844 312.464 292.079 312.235C292.31 312.005 292.623 311.876 292.949 311.874C293.161 311.876 293.368 311.937 293.546 312.052C293.725 312.166 293.867 312.329 293.956 312.521L296.07 316.363L298.172 312.546C298.272 312.342 298.425 312.17 298.616 312.047C298.806 311.924 299.027 311.856 299.254 311.849C299.413 311.849 299.571 311.881 299.716 311.946C299.862 312.01 299.992 312.104 300.099 312.222C300.327 312.459 300.453 312.777 300.447 313.105C300.443 313.32 300.383 313.53 300.273 313.715L298.023 317.321L302.4 317.159C302.561 317.143 302.723 317.162 302.876 317.214C303.029 317.266 303.17 317.35 303.287 317.461C303.405 317.571 303.498 317.706 303.559 317.856C303.621 318.005 303.649 318.166 303.643 318.328C303.646 318.635 303.535 318.931 303.332 319.161C303.215 319.277 303.075 319.367 302.921 319.425C302.766 319.483 302.601 319.507 302.437 319.497L298.047 319.36L300.224 322.904C300.346 323.102 300.411 323.33 300.41 323.563C300.411 323.727 300.378 323.89 300.311 324.04C300.245 324.19 300.147 324.324 300.025 324.434C299.916 324.55 299.786 324.643 299.64 324.707C299.495 324.771 299.338 324.805 299.179 324.807C298.968 324.803 298.762 324.737 298.587 324.618C298.413 324.499 298.277 324.331 298.197 324.135L296.108 320.405L294.043 324.135C293.95 324.337 293.801 324.507 293.614 324.626C293.426 324.745 293.208 324.808 292.986 324.807Z" fill="#263238"/>
<path d="M313.156 324.807C312.834 324.802 312.526 324.673 312.298 324.446C312.176 324.337 312.078 324.202 312.011 324.052C311.945 323.902 311.911 323.74 311.912 323.576C311.916 323.351 311.981 323.132 312.099 322.941L314.325 319.36L309.973 319.497C309.813 319.509 309.652 319.488 309.5 319.434C309.349 319.381 309.21 319.296 309.093 319.186C308.976 319.076 308.884 318.943 308.821 318.795C308.758 318.648 308.727 318.489 308.729 318.328C308.728 318.176 308.758 318.025 308.815 317.884C308.873 317.743 308.958 317.615 309.065 317.507C309.179 317.387 309.319 317.294 309.474 317.233C309.628 317.173 309.795 317.148 309.96 317.159L314.263 317.321L312.049 313.752C311.929 313.558 311.864 313.334 311.863 313.105C311.867 312.777 312.001 312.464 312.236 312.235C312.467 312.005 312.78 311.876 313.106 311.874C313.318 311.876 313.525 311.937 313.704 312.052C313.882 312.166 314.024 312.329 314.113 312.521L316.227 316.363L318.341 312.546C318.44 312.344 318.592 312.173 318.78 312.05C318.968 311.927 319.186 311.858 319.411 311.849C319.57 311.849 319.728 311.881 319.873 311.946C320.019 312.01 320.15 312.104 320.256 312.222C320.484 312.459 320.61 312.777 320.604 313.105C320.604 313.319 320.548 313.529 320.443 313.715L318.192 317.321L322.557 317.159C322.722 317.148 322.888 317.173 323.043 317.233C323.198 317.294 323.337 317.387 323.452 317.507C323.664 317.727 323.78 318.022 323.775 318.328C323.775 318.636 323.659 318.933 323.452 319.161C323.335 319.277 323.195 319.367 323.04 319.425C322.886 319.483 322.721 319.507 322.557 319.497L318.167 319.36L320.343 322.904C320.466 323.102 320.531 323.33 320.53 323.563C320.525 323.891 320.391 324.204 320.157 324.434C319.93 324.665 319.622 324.799 319.299 324.807C319.087 324.803 318.882 324.737 318.707 324.618C318.532 324.499 318.397 324.331 318.316 324.135L316.227 320.405L314.163 324.135C314.074 324.329 313.932 324.495 313.754 324.613C313.577 324.732 313.369 324.799 313.156 324.807Z" fill="#263238"/>
<g style="mix-blend-mode:multiply">
<path d="M375.89 72.8875H155.767V86.6778H375.89V72.8875Z" fill="#90CAF9"/>
</g>
<path d="M289.766 47.4829H241.891C241.027 47.4829 240.199 47.1397 239.588 46.5287C238.977 45.9177 238.634 45.089 238.634 44.225V44.225C238.634 43.3609 238.977 42.5323 239.588 41.9213C240.199 41.3103 241.027 40.967 241.891 40.967H289.766C290.63 40.967 291.459 41.3103 292.07 41.9213C292.681 42.5323 293.024 43.3609 293.024 44.225V44.225C293.024 45.089 292.681 45.9177 292.07 46.5287C291.459 47.1397 290.63 47.4829 289.766 47.4829V47.4829Z" fill="#90CAF9" stroke="#263238" stroke-width="1.33739" stroke-linecap="round" stroke-linejoin="round"/>
<path d="M278.885 448.67C278.888 446.087 278.124 443.561 276.69 441.412C275.256 439.263 273.217 437.587 270.831 436.598C268.445 435.608 265.818 435.348 263.284 435.852C260.751 436.355 258.423 437.599 256.596 439.426C254.769 441.252 253.526 443.58 253.022 446.114C252.519 448.648 252.778 451.274 253.768 453.66C254.758 456.047 256.433 458.086 258.582 459.519C260.732 460.953 263.258 461.717 265.841 461.715C269.3 461.711 272.616 460.336 275.061 457.89C277.507 455.445 278.882 452.129 278.885 448.67Z" fill="#90CAF9"/>
<path d="M272.457 442.055H259.226V455.286H272.457V442.055Z" fill="#90CAF9" stroke="#263238" stroke-width="1.33739" stroke-linecap="round" stroke-linejoin="round"/>
<path d="M423.441 298.532C423.441 298.532 406.107 254.487 421.539 249.252C437.605 243.793 436.896 272.878 436.274 287.054C434.968 317.346 431.623 322.979 429.124 315.58L423.441 298.532ZM418.231 332.889C422.994 339.107 424.337 332.665 415.744 303.58C411.715 289.902 402.961 262.234 389.531 272.617C376.636 282.565 407.326 318.626 407.326 318.626L418.231 332.889ZM409.029 358.132C413.568 362.161 413.655 357.075 402.874 336.073C397.813 326.237 387.106 306.328 378.34 316.177C369.921 325.677 398.609 348.769 398.609 348.769L409.029 358.132ZM399.081 388.15C403.62 392.191 403.707 387.093 392.926 366.103C387.865 356.267 377.159 336.346 368.392 346.207C360.023 355.732 388.624 378.824 388.624 378.824L399.081 388.15ZM427.806 327.045C420.544 329.88 426.314 332.964 456.643 332.877C470.868 332.877 499.916 332.23 493.723 316.425C487.792 301.242 444.593 320.579 444.593 320.579L427.806 327.045ZM419.537 347.239C411.852 348.57 416.901 352.748 446.645 358.692C460.584 361.49 489.172 366.65 486.25 349.987C483.452 333.921 437.269 344.292 437.269 344.292L419.537 347.239ZM410.285 371.898C403.744 372.843 407.923 376.486 432.929 382.206C444.655 384.892 468.717 389.928 466.628 375.715C464.638 362.037 425.344 369.771 425.344 369.771L410.285 371.898ZM403.259 394.741C396.855 396.37 401.394 399.553 426.886 402.587C438.823 404.005 463.283 406.467 459.714 392.552C456.269 379.197 418.02 391.022 418.02 391.022L403.259 394.741ZM440.738 302.262C437.008 310.618 444.755 309.35 471.092 286.37C483.427 275.589 508.173 253.032 488.575 241.803C469.761 231.01 449.53 283.087 449.53 283.087L440.738 302.262ZM404.229 424.497C400.287 426.798 404.155 427.693 422.235 424.087C430.716 422.408 447.963 418.678 442.131 411.316C436.486 404.228 413.357 419.15 413.357 419.15L404.229 424.497Z" fill="#90CAF9"/>
<path opacity="0.3" d="M423.441 298.532C423.441 298.532 406.107 254.487 421.539 249.252C437.605 243.793 436.896 272.878 436.274 287.054C434.968 317.346 431.623 322.979 429.124 315.58L423.441 298.532ZM418.231 332.889C422.994 339.107 424.337 332.665 415.744 303.58C411.715 289.902 402.961 262.234 389.531 272.617C376.636 282.565 407.326 318.626 407.326 318.626L418.231 332.889ZM409.029 358.132C413.568 362.161 413.655 357.075 402.874 336.073C397.813 326.237 387.106 306.328 378.34 316.177C369.921 325.677 398.609 348.769 398.609 348.769L409.029 358.132ZM399.081 388.15C403.62 392.191 403.707 387.093 392.926 366.103C387.865 356.267 377.159 336.346 368.392 346.207C360.023 355.732 388.624 378.824 388.624 378.824L399.081 388.15ZM427.806 327.045C420.544 329.88 426.314 332.964 456.643 332.877C470.868 332.877 499.916 332.23 493.723 316.425C487.792 301.242 444.593 320.579 444.593 320.579L427.806 327.045ZM419.537 347.239C411.852 348.57 416.901 352.748 446.645 358.692C460.584 361.49 489.172 366.65 486.25 349.987C483.452 333.921 437.269 344.292 437.269 344.292L419.537 347.239ZM410.285 371.898C403.744 372.843 407.923 376.486 432.929 382.206C444.655 384.892 468.717 389.928 466.628 375.715C464.638 362.037 425.344 369.771 425.344 369.771L410.285 371.898ZM403.259 394.741C396.855 396.37 401.394 399.553 426.886 402.587C438.823 404.005 463.283 406.467 459.714 392.552C456.269 379.197 418.02 391.022 418.02 391.022L403.259 394.741ZM440.738 302.262C437.008 310.618 444.755 309.35 471.092 286.37C483.427 275.589 508.173 253.032 488.575 241.803C469.761 231.01 449.53 283.087 449.53 283.087L440.738 302.262ZM404.229 424.497C400.287 426.798 404.155 427.693 422.235 424.087C430.716 422.408 447.963 418.678 442.131 411.316C436.486 404.228 413.357 419.15 413.357 419.15L404.229 424.497Z" fill="white"/>
<path d="M431.089 319.037L428.067 268.762L431.089 319.037ZM421.526 335.625L402.426 292.389L421.526 335.625ZM470.818 323.053L425.045 329.619L470.818 323.053ZM411.628 358.928L386.845 327.132L411.628 358.928ZM415.98 349.179L450.126 350.895L415.98 349.179ZM407.898 373.564L434.011 376.15L407.898 373.564ZM401.593 389.058L388.623 369.547L401.593 389.058ZM400.101 395.947L430.803 396.233L400.101 395.947ZM393.883 453.545C394.089 453.529 394.28 453.433 394.415 453.277C394.55 453.121 394.618 452.918 394.605 452.712C392.652 423.39 403.993 375.367 422.185 335.948C433.812 310.755 479.386 261.239 479.871 260.742C480.017 260.595 480.1 260.396 480.1 260.188C480.1 259.981 480.017 259.782 479.871 259.635C479.799 259.563 479.714 259.506 479.62 259.466C479.526 259.427 479.425 259.407 479.324 259.407C479.222 259.407 479.121 259.427 479.027 259.466C478.933 259.506 478.848 259.563 478.777 259.635C478.316 260.132 432.556 309.835 420.83 335.252C402.302 375.628 391.11 422.781 393.1 452.812C393.115 453.009 393.204 453.195 393.349 453.33C393.494 453.466 393.685 453.543 393.883 453.545V453.545ZM431.076 319.808C431.282 319.795 431.474 319.701 431.611 319.548C431.749 319.394 431.82 319.193 431.81 318.987L428.838 268.688C428.833 268.585 428.808 268.485 428.764 268.392C428.72 268.3 428.658 268.217 428.582 268.149C428.505 268.08 428.416 268.028 428.319 267.994C428.222 267.961 428.119 267.947 428.017 267.954C427.812 267.967 427.619 268.06 427.482 268.214C427.345 268.367 427.273 268.569 427.284 268.775L430.305 319.049C430.315 319.247 430.4 319.434 430.544 319.57C430.687 319.707 430.878 319.783 431.076 319.783V319.808ZM421.8 336.334C421.986 336.249 422.132 336.095 422.206 335.905C422.281 335.714 422.278 335.502 422.198 335.314L403.085 292.078C403.003 291.89 402.849 291.742 402.658 291.668C402.467 291.593 402.254 291.597 402.066 291.68C401.878 291.762 401.73 291.916 401.655 292.107C401.581 292.298 401.585 292.511 401.668 292.699L420.768 335.936C420.828 336.074 420.926 336.193 421.052 336.277C421.178 336.361 421.325 336.406 421.476 336.408C421.605 336.415 421.733 336.389 421.849 336.334H421.8ZM425.107 330.365L470.856 323.824C470.966 323.822 471.075 323.796 471.175 323.749C471.274 323.702 471.363 323.634 471.435 323.55C471.507 323.466 471.56 323.367 471.591 323.261C471.622 323.155 471.63 323.044 471.615 322.934C471.6 322.825 471.562 322.72 471.504 322.626C471.445 322.532 471.368 322.452 471.276 322.391C471.184 322.329 471.081 322.287 470.972 322.269C470.863 322.25 470.751 322.255 470.644 322.282L424.896 328.823C424.692 328.836 424.501 328.93 424.365 329.084C424.23 329.238 424.162 329.439 424.175 329.644C424.188 329.848 424.282 330.039 424.436 330.174C424.59 330.309 424.791 330.378 424.996 330.365H425.107ZM412.063 359.55C412.226 359.422 412.331 359.236 412.357 359.031C412.382 358.826 412.326 358.619 412.2 358.455L387.405 326.597C387.278 326.432 387.091 326.324 386.884 326.298C386.678 326.271 386.469 326.327 386.304 326.454C386.139 326.581 386.032 326.768 386.005 326.975C385.978 327.181 386.034 327.39 386.161 327.555L411.006 359.463C411.078 359.555 411.171 359.631 411.276 359.682C411.382 359.734 411.498 359.761 411.616 359.761C411.801 359.752 411.977 359.677 412.113 359.55H412.063ZM450.81 350.932C450.817 350.726 450.743 350.526 450.603 350.375C450.463 350.224 450.27 350.134 450.064 350.124L415.98 348.395C415.789 348.409 415.609 348.492 415.474 348.629C415.34 348.766 415.261 348.948 415.251 349.139C415.242 349.331 415.304 349.52 415.424 349.669C415.545 349.818 415.716 349.918 415.906 349.95L450.052 351.678C450.258 351.685 450.458 351.611 450.609 351.471C450.76 351.331 450.85 351.138 450.86 350.932H450.81ZM434.732 376.225C434.744 376.123 434.736 376.019 434.707 375.92C434.678 375.821 434.63 375.729 434.565 375.649C434.5 375.569 434.42 375.503 434.329 375.454C434.238 375.406 434.138 375.376 434.036 375.367L407.922 372.793C407.821 372.783 407.719 372.792 407.621 372.822C407.524 372.851 407.433 372.9 407.354 372.965C407.276 373.029 407.211 373.109 407.163 373.199C407.115 373.289 407.086 373.388 407.077 373.489C407.059 373.693 407.122 373.896 407.253 374.054C407.383 374.212 407.57 374.313 407.773 374.335L433.886 376.921H433.961C434.162 376.935 434.36 376.87 434.513 376.74C434.666 376.61 434.763 376.425 434.782 376.225H434.732ZM401.966 389.704C402.139 389.59 402.259 389.412 402.301 389.21C402.343 389.007 402.303 388.796 402.19 388.622L389.282 369.112C389.164 368.944 388.986 368.828 388.784 368.789C388.582 368.749 388.373 368.789 388.201 368.901C388.028 369.015 387.907 369.193 387.866 369.395C387.824 369.598 387.864 369.809 387.977 369.982L400.884 389.493C400.958 389.6 401.056 389.687 401.171 389.747C401.286 389.808 401.414 389.84 401.543 389.841C401.712 389.85 401.878 389.802 402.016 389.704H401.966ZM431.586 396.233C431.583 396.028 431.501 395.832 431.358 395.686C431.214 395.541 431.02 395.456 430.815 395.449L400.113 395.163C399.909 395.163 399.713 395.244 399.568 395.389C399.424 395.534 399.342 395.73 399.342 395.934C399.339 396.037 399.356 396.139 399.394 396.235C399.431 396.331 399.488 396.418 399.56 396.491C399.632 396.564 399.718 396.622 399.813 396.661C399.908 396.7 400.01 396.719 400.113 396.718L430.815 397.004C430.92 397.009 431.025 396.992 431.123 396.956C431.222 396.92 431.312 396.864 431.389 396.792C431.465 396.72 431.527 396.634 431.569 396.537C431.612 396.441 431.634 396.338 431.636 396.233H431.586ZM390.389 442.142C390.451 442.006 395.686 427.581 411.429 424.137C411.632 424.092 411.809 423.969 411.92 423.794C412.032 423.619 412.07 423.407 412.026 423.204C411.976 423.005 411.851 422.833 411.677 422.725C411.503 422.616 411.294 422.578 411.093 422.62C394.493 426.251 388.984 441.483 388.922 441.632C388.858 441.829 388.873 442.042 388.963 442.228C389.054 442.414 389.213 442.557 389.407 442.627H389.655C389.821 442.642 389.986 442.602 390.128 442.515C390.269 442.427 390.378 442.297 390.439 442.142H390.389ZM393.883 453.545C394.089 453.529 394.28 453.433 394.415 453.277C394.55 453.121 394.618 452.918 394.605 452.712C392.652 423.39 403.993 375.367 422.185 335.948C433.812 310.755 479.386 261.239 479.871 260.742C480.017 260.595 480.1 260.396 480.1 260.188C480.1 259.981 480.017 259.782 479.871 259.635C479.799 259.563 479.714 259.506 479.62 259.466C479.526 259.427 479.425 259.407 479.324 259.407C479.222 259.407 479.121 259.427 479.027 259.466C478.933 259.506 478.848 259.563 478.777 259.635C478.316 260.132 432.556 309.835 420.83 335.252C402.302 375.628 391.11 422.781 393.1 452.812C393.115 453.009 393.204 453.195 393.349 453.33C393.494 453.466 393.685 453.543 393.883 453.545V453.545ZM431.076 319.808C431.282 319.795 431.474 319.701 431.611 319.548C431.749 319.394 431.82 319.193 431.81 318.987L428.838 268.688C428.833 268.585 428.808 268.485 428.764 268.392C428.72 268.3 428.658 268.217 428.582 268.149C428.505 268.08 428.416 268.028 428.319 267.994C428.222 267.961 428.119 267.947 428.017 267.954C427.812 267.967 427.619 268.06 427.482 268.214C427.345 268.367 427.273 268.569 427.284 268.775L430.305 319.049C430.315 319.247 430.4 319.434 430.544 319.57C430.687 319.707 430.878 319.783 431.076 319.783V319.808ZM421.8 336.334C421.986 336.249 422.132 336.095 422.206 335.905C422.281 335.714 422.278 335.502 422.198 335.314L403.085 292.078C403.003 291.89 402.849 291.742 402.658 291.668C402.467 291.593 402.254 291.597 402.066 291.68C401.878 291.762 401.73 291.916 401.655 292.107C401.581 292.298 401.585 292.511 401.668 292.699L420.768 335.936C420.828 336.074 420.926 336.193 421.052 336.277C421.178 336.361 421.325 336.406 421.476 336.408C421.605 336.415 421.733 336.389 421.849 336.334H421.8ZM425.107 330.365L470.856 323.824C470.966 323.822 471.075 323.796 471.175 323.749C471.274 323.702 471.363 323.634 471.435 323.55C471.507 323.466 471.56 323.367 471.591 323.261C471.622 323.155 471.63 323.044 471.615 322.934C471.6 322.825 471.562 322.72 471.504 322.626C471.445 322.532 471.368 322.452 471.276 322.391C471.184 322.329 471.081 322.287 470.972 322.269C470.863 322.25 470.751 322.255 470.644 322.282L424.896 328.823C424.692 328.836 424.501 328.93 424.365 329.084C424.23 329.238 424.162 329.439 424.175 329.644C424.188 329.848 424.282 330.039 424.436 330.174C424.59 330.309 424.791 330.378 424.996 330.365H425.107ZM412.063 359.55C412.226 359.422 412.331 359.236 412.357 359.031C412.382 358.826 412.326 358.619 412.2 358.455L387.405 326.597C387.342 326.515 387.264 326.447 387.174 326.396C387.085 326.344 386.986 326.311 386.884 326.298C386.782 326.284 386.678 326.291 386.579 326.318C386.479 326.345 386.386 326.391 386.304 326.454C386.223 326.517 386.154 326.595 386.103 326.685C386.051 326.774 386.018 326.873 386.005 326.975C385.992 327.077 385.999 327.181 386.025 327.28C386.052 327.38 386.098 327.473 386.161 327.555L411.006 359.463C411.078 359.555 411.171 359.631 411.276 359.682C411.382 359.734 411.498 359.761 411.616 359.761C411.801 359.752 411.977 359.677 412.113 359.55H412.063ZM450.81 350.932C450.817 350.726 450.743 350.526 450.603 350.375C450.463 350.224 450.27 350.134 450.064 350.124L415.98 348.395C415.789 348.409 415.609 348.492 415.474 348.629C415.34 348.766 415.261 348.948 415.251 349.139C415.242 349.331 415.304 349.52 415.424 349.669C415.545 349.818 415.716 349.918 415.906 349.95L450.052 351.678C450.258 351.685 450.458 351.611 450.609 351.471C450.76 351.331 450.85 351.138 450.86 350.932H450.81ZM434.732 376.225C434.744 376.123 434.736 376.019 434.707 375.92C434.678 375.821 434.63 375.729 434.565 375.649C434.5 375.569 434.42 375.503 434.329 375.454C434.238 375.406 434.138 375.376 434.036 375.367L407.922 372.793C407.821 372.783 407.719 372.792 407.621 372.822C407.524 372.851 407.433 372.9 407.354 372.965C407.276 373.029 407.211 373.109 407.163 373.199C407.115 373.289 407.086 373.388 407.077 373.489C407.059 373.693 407.122 373.896 407.253 374.054C407.383 374.212 407.57 374.313 407.773 374.335L433.886 376.921H433.961C434.162 376.935 434.36 376.87 434.513 376.74C434.666 376.61 434.763 376.425 434.782 376.225H434.732ZM401.966 389.704C402.139 389.59 402.259 389.412 402.301 389.21C402.343 389.007 402.303 388.796 402.19 388.622L389.282 369.112C389.164 368.944 388.986 368.828 388.784 368.789C388.582 368.749 388.373 368.789 388.201 368.901C388.028 369.015 387.907 369.193 387.866 369.395C387.824 369.598 387.864 369.809 387.977 369.982L400.884 389.493C400.958 389.6 401.056 389.687 401.171 389.747C401.286 389.808 401.414 389.84 401.543 389.841C401.712 389.85 401.878 389.802 402.016 389.704H401.966ZM431.586 396.233C431.583 396.028 431.501 395.832 431.358 395.686C431.214 395.541 431.02 395.456 430.815 395.449L400.113 395.163C399.909 395.163 399.713 395.244 399.568 395.389C399.424 395.534 399.342 395.73 399.342 395.934C399.339 396.037 399.356 396.139 399.394 396.235C399.431 396.331 399.488 396.418 399.56 396.491C399.632 396.564 399.718 396.622 399.813 396.661C399.908 396.7 400.01 396.719 400.113 396.718L430.815 397.004C430.92 397.009 431.025 396.992 431.123 396.956C431.222 396.92 431.312 396.864 431.389 396.792C431.465 396.72 431.527 396.634 431.569 396.537C431.612 396.441 431.634 396.338 431.636 396.233H431.586ZM390.389 442.142C390.451 442.006 395.686 427.581 411.429 424.137C411.632 424.092 411.809 423.969 411.92 423.794C412.032 423.619 412.07 423.407 412.026 423.204C411.976 423.005 411.851 422.833 411.677 422.725C411.503 422.616 411.294 422.578 411.093 422.62C394.493 426.251 388.984 441.483 388.922 441.632C388.858 441.829 388.873 442.042 388.963 442.228C389.054 442.414 389.213 442.557 389.407 442.627H389.655C389.821 442.642 389.986 442.602 390.128 442.515C390.269 442.427 390.378 442.297 390.439 442.142H390.389Z" fill="#90CAF9"/>
<path opacity="0.2" d="M431.089 319.037L428.067 268.762L431.089 319.037ZM421.526 335.625L402.426 292.389L421.526 335.625ZM470.818 323.053L425.045 329.619L470.818 323.053ZM411.628 358.928L386.845 327.132L411.628 358.928ZM415.98 349.179L450.126 350.895L415.98 349.179ZM407.898 373.564L434.011 376.15L407.898 373.564ZM401.593 389.058L388.623 369.547L401.593 389.058ZM400.101 395.947L430.803 396.233L400.101 395.947ZM393.883 453.545C394.089 453.529 394.28 453.433 394.415 453.277C394.55 453.121 394.618 452.918 394.605 452.712C392.652 423.39 403.993 375.367 422.185 335.948C433.812 310.755 479.386 261.239 479.871 260.742C480.017 260.595 480.1 260.396 480.1 260.188C480.1 259.981 480.017 259.782 479.871 259.635C479.799 259.563 479.714 259.506 479.62 259.466C479.526 259.427 479.425 259.407 479.324 259.407C479.222 259.407 479.121 259.427 479.027 259.466C478.933 259.506 478.848 259.563 478.777 259.635C478.316 260.132 432.556 309.835 420.83 335.252C402.302 375.628 391.11 422.781 393.1 452.812C393.115 453.009 393.204 453.195 393.349 453.33C393.494 453.466 393.685 453.543 393.883 453.545V453.545ZM431.076 319.808C431.282 319.795 431.474 319.701 431.611 319.548C431.749 319.394 431.82 319.193 431.81 318.987L428.838 268.688C428.833 268.585 428.808 268.485 428.764 268.392C428.72 268.3 428.658 268.217 428.582 268.149C428.505 268.08 428.416 268.028 428.319 267.994C428.222 267.961 428.119 267.947 428.017 267.954C427.812 267.967 427.619 268.06 427.482 268.214C427.345 268.367 427.273 268.569 427.284 268.775L430.305 319.049C430.315 319.247 430.4 319.434 430.544 319.57C430.687 319.707 430.878 319.783 431.076 319.783V319.808ZM421.8 336.334C421.986 336.249 422.132 336.095 422.206 335.905C422.281 335.714 422.278 335.502 422.198 335.314L403.085 292.078C403.003 291.89 402.849 291.742 402.658 291.668C402.467 291.593 402.254 291.597 402.066 291.68C401.878 291.762 401.73 291.916 401.655 292.107C401.581 292.298 401.585 292.511 401.668 292.699L420.768 335.936C420.828 336.074 420.926 336.193 421.052 336.277C421.178 336.361 421.325 336.406 421.476 336.408C421.605 336.415 421.733 336.389 421.849 336.334H421.8ZM425.107 330.365L470.856 323.824C470.966 323.822 471.075 323.796 471.175 323.749C471.274 323.702 471.363 323.634 471.435 323.55C471.507 323.466 471.56 323.367 471.591 323.261C471.622 323.155 471.63 323.044 471.615 322.934C471.6 322.825 471.562 322.72 471.504 322.626C471.445 322.532 471.368 322.452 471.276 322.391C471.184 322.329 471.081 322.287 470.972 322.269C470.863 322.25 470.751 322.255 470.644 322.282L424.896 328.823C424.692 328.836 424.501 328.93 424.365 329.084C424.23 329.238 424.162 329.439 424.175 329.644C424.188 329.848 424.282 330.039 424.436 330.174C424.59 330.309 424.791 330.378 424.996 330.365H425.107ZM412.063 359.55C412.226 359.422 412.331 359.236 412.357 359.031C412.382 358.826 412.326 358.619 412.2 358.455L387.405 326.597C387.278 326.432 387.091 326.324 386.884 326.298C386.678 326.271 386.469 326.327 386.304 326.454C386.139 326.581 386.032 326.768 386.005 326.975C385.978 327.181 386.034 327.39 386.161 327.555L411.006 359.463C411.078 359.555 411.171 359.631 411.276 359.682C411.382 359.734 411.498 359.761 411.616 359.761C411.801 359.752 411.977 359.677 412.113 359.55H412.063ZM450.81 350.932C450.817 350.726 450.743 350.526 450.603 350.375C450.463 350.224 450.27 350.134 450.064 350.124L415.98 348.395C415.789 348.409 415.609 348.492 415.474 348.629C415.34 348.766 415.261 348.948 415.251 349.139C415.242 349.331 415.304 349.52 415.424 349.669C415.545 349.818 415.716 349.918 415.906 349.95L450.052 351.678C450.258 351.685 450.458 351.611 450.609 351.471C450.76 351.331 450.85 351.138 450.86 350.932H450.81ZM434.732 376.225C434.744 376.123 434.736 376.019 434.707 375.92C434.678 375.821 434.63 375.729 434.565 375.649C434.5 375.569 434.42 375.503 434.329 375.454C434.238 375.406 434.138 375.376 434.036 375.367L407.922 372.793C407.821 372.783 407.719 372.792 407.621 372.822C407.524 372.851 407.433 372.9 407.354 372.965C407.276 373.029 407.211 373.109 407.163 373.199C407.115 373.289 407.086 373.388 407.077 373.489C407.059 373.693 407.122 373.896 407.253 374.054C407.383 374.212 407.57 374.313 407.773 374.335L433.886 376.921H433.961C434.162 376.935 434.36 376.87 434.513 376.74C434.666 376.61 434.763 376.425 434.782 376.225H434.732ZM401.966 389.704C402.139 389.59 402.259 389.412 402.301 389.21C402.343 389.007 402.303 388.796 402.19 388.622L389.282 369.112C389.164 368.944 388.986 368.828 388.784 368.789C388.582 368.749 388.373 368.789 388.201 368.901C388.028 369.015 387.907 369.193 387.866 369.395C387.824 369.598 387.864 369.809 387.977 369.982L400.884 389.493C400.958 389.6 401.056 389.687 401.171 389.747C401.286 389.808 401.414 389.84 401.543 389.841C401.712 389.85 401.878 389.802 402.016 389.704H401.966ZM431.586 396.233C431.583 396.028 431.501 395.832 431.358 395.686C431.214 395.541 431.02 395.456 430.815 395.449L400.113 395.163C399.909 395.163 399.713 395.244 399.568 395.389C399.424 395.534 399.342 395.73 399.342 395.934C399.339 396.037 399.356 396.139 399.394 396.235C399.431 396.331 399.488 396.418 399.56 396.491C399.632 396.564 399.718 396.622 399.813 396.661C399.908 396.7 400.01 396.719 400.113 396.718L430.815 397.004C430.92 397.009 431.025 396.992 431.123 396.956C431.222 396.92 431.312 396.864 431.389 396.792C431.465 396.72 431.527 396.634 431.569 396.537C431.612 396.441 431.634 396.338 431.636 396.233H431.586ZM390.389 442.142C390.451 442.006 395.686 427.581 411.429 424.137C411.632 424.092 411.809 423.969 411.92 423.794C412.032 423.619 412.07 423.407 412.026 423.204C411.976 423.005 411.851 422.833 411.677 422.725C411.503 422.616 411.294 422.578 411.093 422.62C394.493 426.251 388.984 441.483 388.922 441.632C388.858 441.829 388.873 442.042 388.963 442.228C389.054 442.414 389.213 442.557 389.407 442.627H389.655C389.821 442.642 389.986 442.602 390.128 442.515C390.269 442.427 390.378 442.297 390.439 442.142H390.389ZM393.883 453.545C394.089 453.529 394.28 453.433 394.415 453.277C394.55 453.121 394.618 452.918 394.605 452.712C392.652 423.39 403.993 375.367 422.185 335.948C433.812 310.755 479.386 261.239 479.871 260.742C480.017 260.595 480.1 260.396 480.1 260.188C480.1 259.981 480.017 259.782 479.871 259.635C479.799 259.563 479.714 259.506 479.62 259.466C479.526 259.427 479.425 259.407 479.324 259.407C479.222 259.407 479.121 259.427 479.027 259.466C478.933 259.506 478.848 259.563 478.777 259.635C478.316 260.132 432.556 309.835 420.83 335.252C402.302 375.628 391.11 422.781 393.1 452.812C393.115 453.009 393.204 453.195 393.349 453.33C393.494 453.466 393.685 453.543 393.883 453.545V453.545ZM431.076 319.808C431.282 319.795 431.474 319.701 431.611 319.548C431.749 319.394 431.82 319.193 431.81 318.987L428.838 268.688C428.833 268.585 428.808 268.485 428.764 268.392C428.72 268.3 428.658 268.217 428.582 268.149C428.505 268.08 428.416 268.028 428.319 267.994C428.222 267.961 428.119 267.947 428.017 267.954C427.812 267.967 427.619 268.06 427.482 268.214C427.345 268.367 427.273 268.569 427.284 268.775L430.305 319.049C430.315 319.247 430.4 319.434 430.544 319.57C430.687 319.707 430.878 319.783 431.076 319.783V319.808ZM421.8 336.334C421.986 336.249 422.132 336.095 422.206 335.905C422.281 335.714 422.278 335.502 422.198 335.314L403.085 292.078C403.003 291.89 402.849 291.742 402.658 291.668C402.467 291.593 402.254 291.597 402.066 291.68C401.878 291.762 401.73 291.916 401.655 292.107C401.581 292.298 401.585 292.511 401.668 292.699L420.768 335.936C420.828 336.074 420.926 336.193 421.052 336.277C421.178 336.361 421.325 336.406 421.476 336.408C421.605 336.415 421.733 336.389 421.849 336.334H421.8ZM425.107 330.365L470.856 323.824C470.966 323.822 471.075 323.796 471.175 323.749C471.274 323.702 471.363 323.634 471.435 323.55C471.507 323.466 471.56 323.367 471.591 323.261C471.622 323.155 471.63 323.044 471.615 322.934C471.6 322.825 471.562 322.72 471.504 322.626C471.445 322.532 471.368 322.452 471.276 322.391C471.184 322.329 471.081 322.287 470.972 322.269C470.863 322.25 470.751 322.255 470.644 322.282L424.896 328.823C424.692 328.836 424.501 328.93 424.365 329.084C424.23 329.238 424.162 329.439 424.175 329.644C424.188 329.848 424.282 330.039 424.436 330.174C424.59 330.309 424.791 330.378 424.996 330.365H425.107ZM412.063 359.55C412.226 359.422 412.331 359.236 412.357 359.031C412.382 358.826 412.326 358.619 412.2 358.455L387.405 326.597C387.342 326.515 387.264 326.447 387.174 326.396C387.085 326.344 386.986 326.311 386.884 326.298C386.782 326.284 386.678 326.291 386.579 326.318C386.479 326.345 386.386 326.391 386.304 326.454C386.223 326.517 386.154 326.595 386.103 326.685C386.051 326.774 386.018 326.873 386.005 326.975C385.992 327.077 385.999 327.181 386.025 327.28C386.052 327.38 386.098 327.473 386.161 327.555L411.006 359.463C411.078 359.555 411.171 359.631 411.276 359.682C411.382 359.734 411.498 359.761 411.616 359.761C411.801 359.752 411.977 359.677 412.113 359.55H412.063ZM450.81 350.932C450.817 350.726 450.743 350.526 450.603 350.375C450.463 350.224 450.27 350.134 450.064 350.124L415.98 348.395C415.789 348.409 415.609 348.492 415.474 348.629C415.34 348.766 415.261 348.948 415.251 349.139C415.242 349.331 415.304 349.52 415.424 349.669C415.545 349.818 415.716 349.918 415.906 349.95L450.052 351.678C450.258 351.685 450.458 351.611 450.609 351.471C450.76 351.331 450.85 351.138 450.86 350.932H450.81ZM434.732 376.225C434.744 376.123 434.736 376.019 434.707 375.92C434.678 375.821 434.63 375.729 434.565 375.649C434.5 375.569 434.42 375.503 434.329 375.454C434.238 375.406 434.138 375.376 434.036 375.367L407.922 372.793C407.821 372.783 407.719 372.792 407.621 372.822C407.524 372.851 407.433 372.9 407.354 372.965C407.276 373.029 407.211 373.109 407.163 373.199C407.115 373.289 407.086 373.388 407.077 373.489C407.059 373.693 407.122 373.896 407.253 374.054C407.383 374.212 407.57 374.313 407.773 374.335L433.886 376.921H433.961C434.162 376.935 434.36 376.87 434.513 376.74C434.666 376.61 434.763 376.425 434.782 376.225H434.732ZM401.966 389.704C402.139 389.59 402.259 389.412 402.301 389.21C402.343 389.007 402.303 388.796 402.19 388.622L389.282 369.112C389.164 368.944 388.986 368.828 388.784 368.789C388.582 368.749 388.373 368.789 388.201 368.901C388.028 369.015 387.907 369.193 387.866 369.395C387.824 369.598 387.864 369.809 387.977 369.982L400.884 389.493C400.958 389.6 401.056 389.687 401.171 389.747C401.286 389.808 401.414 389.84 401.543 389.841C401.712 389.85 401.878 389.802 402.016 389.704H401.966ZM431.586 396.233C431.583 396.028 431.501 395.832 431.358 395.686C431.214 395.541 431.02 395.456 430.815 395.449L400.113 395.163C399.909 395.163 399.713 395.244 399.568 395.389C399.424 395.534 399.342 395.73 399.342 395.934C399.339 396.037 399.356 396.139 399.394 396.235C399.431 396.331 399.488 396.418 399.56 396.491C399.632 396.564 399.718 396.622 399.813 396.661C399.908 396.7 400.01 396.719 400.113 396.718L430.815 397.004C430.92 397.009 431.025 396.992 431.123 396.956C431.222 396.92 431.312 396.864 431.389 396.792C431.465 396.72 431.527 396.634 431.569 396.537C431.612 396.441 431.634 396.338 431.636 396.233H431.586ZM390.389 442.142C390.451 442.006 395.686 427.581 411.429 424.137C411.632 424.092 411.809 423.969 411.92 423.794C412.032 423.619 412.07 423.407 412.026 423.204C411.976 423.005 411.851 422.833 411.677 422.725C411.503 422.616 411.294 422.578 411.093 422.62C394.493 426.251 388.984 441.483 388.922 441.632C388.858 441.829 388.873 442.042 388.963 442.228C389.054 442.414 389.213 442.557 389.407 442.627H389.655C389.821 442.642 389.986 442.602 390.128 442.515C390.269 442.427 390.378 442.297 390.439 442.142H390.389Z" fill="black"/>
<path d="M414.19 431.622H378.986V438.909H382.058L388.412 478.664H404.764L411.118 438.909H414.19V431.622Z" fill="#90CAF9"/>
<path opacity="0.3" d="M414.19 431.622H378.986V438.909H382.058L388.412 478.664H404.764L411.118 438.909H414.19V431.622Z" fill="white"/>
<path d="M97.2483 211.275L56.3001 197.908L52.6567 188.283L44.3377 188.022L29.2417 185.162L31.0572 188.283L50.0578 202.074L54.7457 204.411L97.5716 226.782L97.2483 211.275Z" fill="white" stroke="#263238" stroke-width="1.00396" stroke-miterlimit="10"/>
<path d="M52.6568 188.283L48.7523 185.946L40.9556 188.806L42.2488 190.36L52.6568 188.283Z" fill="white" stroke="#263238" stroke-width="1.00396" stroke-linejoin="round"/>
<path d="M97.2483 211.275L56.3001 197.908L52.6567 188.283L44.3377 188.022L29.2417 185.162L31.0572 188.283L50.0578 202.074L54.7457 204.411L97.5716 226.782L97.2483 211.275Z" fill="white"/>
<path opacity="0.5" d="M97.2488 211.275L56.3006 197.908L52.6571 188.283L44.3382 188.022L29.2422 185.162L31.0577 188.283L50.0582 202.074L54.7462 204.411L97.5721 226.782L97.2488 211.275Z" fill="#90CAF9" stroke="#263238" stroke-width="1.00396" stroke-miterlimit="10"/>
<path d="M97.2483 211.275L56.3001 197.908L52.6567 188.283L44.3377 188.022L29.2417 185.162L31.0572 188.283L50.0578 202.074L54.7457 204.411L97.5716 226.782L97.2483 211.275Z" stroke="#263238" stroke-width="1.00396" stroke-miterlimit="10"/>
<path d="M52.6568 188.283L48.7523 185.946L40.9556 188.806L42.2488 190.36L52.6568 188.283Z" fill="white"/>
<path opacity="0.5" d="M52.6568 188.283L48.7523 185.946L40.9556 188.806L42.2488 190.36L52.6568 188.283Z" fill="#90CAF9" stroke="#263238" stroke-width="1.00396" stroke-linejoin="round"/>
<path d="M52.6568 188.283L48.7523 185.946L40.9556 188.806L42.2488 190.36L52.6568 188.283Z" stroke="#263238" stroke-width="1.00396" stroke-linejoin="round"/>
<path d="M105.94 124.517C105.94 124.517 105.306 130.113 106.885 133.707C108.464 137.3 117.231 149.474 117.231 149.474L100.867 162.593C100.867 162.593 94.0773 148.915 92.784 146.701C91.4908 144.488 89.9364 134.963 94.1519 128.136C98.3673 121.309 104.436 119.469 105.94 124.517Z" fill="white"/>
<g style="mix-blend-mode:multiply" opacity="0.5">
<path d="M97.5346 142.498L104.635 157.221L100.855 162.605L93.717 149.86L97.5346 142.498Z" fill="#90CAF9"/>
</g>
<path d="M105.94 124.517C105.94 124.517 105.306 130.113 106.885 133.707C108.464 137.3 117.231 149.474 117.231 149.474L100.867 162.593C100.867 162.593 94.0773 148.915 92.784 146.701C91.4908 144.488 89.9364 134.963 94.1519 128.136C98.3673 121.309 104.436 119.469 105.94 124.517Z" stroke="#263238" stroke-width="1.00396" stroke-miterlimit="10"/>
<path d="M111.014 114.271C110.006 108.053 102.881 95.407 91.5779 95.892C84.2413 96.2153 80.8093 97.695 77.6259 99.4981C75.0311 101.027 72.6124 102.837 70.4137 104.895C64.8926 111.523 62.9527 113.338 64.0221 118.412C63.9344 120.435 64.2515 122.456 64.9547 124.355C66.6459 128.869 67.8023 131.816 69.2697 133.968C68.822 136.069 67.6531 141.615 67.591 142.884C67.5288 144.152 71.3214 143.269 73.2364 142.784C76.7928 150.742 83.3087 156.264 85.3356 156.898C88.8671 158.004 94.4504 152.197 97.4099 147.696C100.369 143.194 98.1311 138.133 98.1436 136.119C98.156 134.104 104.796 129.678 107.258 128.273C109.72 126.867 112.008 120.476 111.014 114.271Z" fill="white"/>
<g style="mix-blend-mode:multiply" opacity="0.5">
<path d="M64.0722 118.412C63.9844 120.435 64.3015 122.456 65.0048 124.355C66.6959 128.869 67.8524 131.816 69.3197 133.968C68.872 136.069 67.7032 141.615 67.641 142.883C67.5788 144.152 71.3715 143.269 73.2864 142.784C76.8428 150.742 83.3587 156.263 85.3856 156.898C88.9171 158.004 94.5004 152.197 97.4599 147.696C98.1993 146.572 98.6793 145.298 98.8651 143.965C98.7034 143.381 98.5915 143.02 98.5915 143.02C98.5915 143.02 96.9252 149.424 93.6175 148.591C90.3098 147.758 85.2488 141.13 82.4261 138.842C79.6034 136.554 80.7598 133.545 80.2002 130.138C79.6407 126.731 71.2844 123.734 70.7248 121.781C70.1653 119.829 72.1176 111.746 72.1176 111.746C72.1176 111.746 75.2885 107.519 74.6045 109.259C74.1211 110.769 73.9458 112.36 74.0889 113.939C74.232 115.517 74.6907 117.051 75.4377 118.449C75.9618 119.552 76.7934 120.48 77.8323 121.122C78.8713 121.764 80.0735 122.092 81.2945 122.067L84.3286 107.034L77.9247 101.736L70.4637 104.845C64.8929 111.523 62.9903 113.338 64.0722 118.412Z" fill="#90CAF9"/>
</g>
<path d="M111.014 114.271C110.006 108.053 102.881 95.407 91.5779 95.892C84.2413 96.2153 80.8093 97.695 77.6259 99.4981C75.0311 101.027 72.6124 102.837 70.4137 104.895C64.8926 111.523 62.9527 113.338 64.0221 118.412C63.9344 120.435 64.2515 122.456 64.9547 124.355C66.6459 128.869 67.8023 131.816 69.2697 133.968C68.822 136.069 67.6531 141.615 67.591 142.884C67.5288 144.152 71.3214 143.269 73.2364 142.784C76.7928 150.742 83.3087 156.264 85.3356 156.898C88.8671 158.004 94.4504 152.197 97.4099 147.696C100.369 143.194 98.1311 138.133 98.1436 136.119C98.156 134.104 104.796 129.678 107.258 128.273C109.72 126.867 112.008 120.476 111.014 114.271Z" stroke="#263238" stroke-miterlimit="10"/>
<path d="M70.8115 130.212L72.055 133.769C72.055 133.769 74.7285 134.651 77.9865 131.095" stroke="#263238" stroke-miterlimit="10" stroke-linecap="round"/>
<path d="M80.0012 146.825C80.0012 146.825 82.9607 146.527 84.1545 142.374" stroke="#263238" stroke-miterlimit="10" stroke-linecap="round"/>
<path d="M68.7351 127.24C68.7351 127.24 69.618 124.567 74.9526 124.567" stroke="#263238" stroke-miterlimit="10" stroke-linecap="round"/>
<path d="M96.0799 90.9427C92.2036 90.3853 88.2946 90.0862 84.3786 90.0474C84.3786 90.0474 72.6649 83.2952 61.4113 90.4951C50.1577 97.6949 55.5669 110.304 55.5669 113.45C55.5669 116.596 51.9608 116.608 54.2115 120.662C56.4622 124.716 64.0724 122.478 64.0724 122.478C64.1528 120.949 64.5569 119.454 65.2578 118.093C65.9588 116.732 66.9407 115.535 68.1386 114.582C72.1924 111.435 75.4255 110.752 76.7684 111.659C76.7684 111.659 75.8731 118.411 77.2161 121.11C77.2161 121.11 81.7175 123.361 83.0729 123.361C84.4283 123.361 82.1901 125.263 86.6791 126.954C87.4969 127.248 88.3717 127.348 89.2347 127.247C90.0978 127.145 90.9256 126.845 91.653 126.37C92.3121 123.634 93.7545 119.518 96.4405 120.476C100.382 121.881 103.976 131.58 98.6415 134.888C105.058 136.057 112.83 124.704 113.29 114.358C113.75 104.012 102.745 92.1116 96.0799 90.9427Z" fill="#263238"/>
<path d="M76.967 107.22C76.967 107.22 80.2747 105.442 84.3285 109.247C88.3823 113.052 96.266 118.138 106.711 115.34" stroke="white" stroke-width="0.5" stroke-linecap="round" stroke-linejoin="round"/>
<path d="M76.5068 104.173C76.5068 104.173 78.7824 100.617 82.5875 100.617C86.3926 100.617 95.2836 105.952 102.384 105.952" stroke="white" stroke-width="0.5" stroke-linecap="round" stroke-linejoin="round"/>
<path d="M73.9205 111.025C73.9205 111.025 69.6056 105.703 65.5518 110.018C61.498 114.333 64.072 118.412 64.072 118.412" stroke="white" stroke-width="0.5" stroke-linecap="round" stroke-linejoin="round"/>
<path d="M56.6731 114.581C59.1458 112.352 60.6829 109.268 60.9756 105.952C61.4854 100.368 69.108 95.5436 73.9203 100.12" stroke="white" stroke-width="0.5" stroke-linecap="round" stroke-linejoin="round"/>
<path d="M64.5325 94.2753C64.5325 94.2753 72.1551 86.9139 78.4969 96.3022" stroke="white" stroke-width="0.5" stroke-linecap="round" stroke-linejoin="round"/>
<path d="M126.57 456.218C126.57 456.218 131.258 463.505 130.736 468.193L130.226 472.881C130.226 472.881 113.028 477.594 109.385 477.594C105.741 477.594 86.4548 475.766 86.4548 475.766L85.6217 472.458C85.5634 472.214 85.5909 471.957 85.6996 471.731C85.8082 471.504 85.9915 471.322 86.2186 471.215L103.416 463.194L108.838 457.263L126.57 456.218Z" fill="white" stroke="#263238" stroke-width="1.00396" stroke-miterlimit="10"/>
<path d="M111.996 473.926C116.659 474.286 125.513 471.439 130.648 469.623L130.288 472.881C130.288 472.881 113.028 477.594 109.385 477.594C105.741 477.594 86.4548 475.766 86.4548 475.766L85.8579 473.403C88.9418 473.416 105.828 473.453 111.996 473.926Z" fill="#90CAF9" stroke="#263238" stroke-width="1.00396" stroke-miterlimit="10"/>
<path d="M103.441 463.194L78.4093 474.087C78.4093 474.087 76.2705 479.447 78.4093 480.516C80.5481 481.586 127.179 480.516 127.179 480.516C127.179 480.516 130.4 472.048 125.314 466.365C120.228 460.683 103.441 463.194 103.441 463.194Z" fill="white" stroke="#263238" stroke-width="1.00396" stroke-miterlimit="10"/>
<path d="M127.179 480.516C127.179 480.516 80.5484 481.586 78.4095 480.516C77.3775 479.994 77.3401 478.489 77.5764 477.059H128C127.835 478.235 127.56 479.392 127.179 480.516Z" fill="#90CAF9" stroke="#263238" stroke-width="1.00396" stroke-miterlimit="10"/>
<path d="M91.603 273.923C91.603 273.923 85.0622 302.908 82.5877 321.039C80.1131 339.169 78.6582 375.491 79.1805 379.657C79.7028 383.822 105.741 453.62 105.741 453.62L108.34 459.837L126.57 456.194C126.57 456.194 118.239 429.633 115.117 415.047C111.996 400.46 105.169 376.498 105.169 372.333C105.169 368.167 121.335 288.608 122.491 283.386C123.648 278.163 128.895 270.142 128.895 270.142L93.9905 269.434L91.603 273.923Z" fill="#90CAF9" stroke="#263238" stroke-width="1.00396" stroke-miterlimit="10"/>
<path d="M91.603 273.922C91.603 273.922 87.7731 300.396 89.3523 318.8C90.9315 337.204 94.3263 376.386 94.3263 382.218C94.3263 388.05 103.739 422.88 104.274 433.823C105.107 449.628 103.938 457.449 103.938 457.449L103.379 463.182C103.379 463.182 114.359 464.749 116.759 465.433C119.531 466.147 122.391 466.457 125.252 466.353C125.252 466.353 129.244 448.782 129.244 433.811C129.244 418.839 125.923 388.025 124.27 375.541C122.616 363.056 127.826 314.895 130.785 305.905C133.745 296.915 140.211 277.877 135.859 268.153C131.507 258.428 91.603 273.922 91.603 273.922Z" fill="#90CAF9" stroke="#263238" stroke-width="1.00396" stroke-miterlimit="10"/>
<path d="M140.696 263.278L140.298 275.116C140.298 275.116 133.21 276.521 123.66 278.175C115.777 279.543 95.9802 277.815 89.3151 277.168C88.7077 277.114 88.1461 276.823 87.7526 276.357C87.359 275.891 87.1653 275.289 87.2136 274.681L87.8602 263.987L140.696 263.278Z" fill="#263238"/>
<path d="M112.991 145.271C112.991 145.271 101.8 157.37 97.5844 164.893C93.3689 172.416 91.7027 183.944 90.1234 193.021C88.5442 202.099 92.8218 223.412 91.6156 233.198L87.7981 264.024C87.7981 264.024 86.9774 266.114 89.7255 268.402C92.4736 270.69 105.891 271.523 118.015 272.132C122.442 272.356 135.66 269.508 137.824 269.371C140.435 269.21 140.522 265.89 140.634 263.278C141.156 251.005 143.37 218.289 144.825 204.038C147.821 174.978 131.42 146.925 112.991 145.271Z" fill="white" stroke="#263238" stroke-width="1.00396" stroke-miterlimit="10"/>
<g style="mix-blend-mode:multiply">
<path d="M143.456 220.564C143.954 214.11 144.451 208.253 144.886 204.038C145.011 202.794 145.085 201.551 145.147 200.307L115.416 205.281L89.8743 196.577C89.8771 201.862 90.176 207.143 90.7696 212.394L115.826 219.407L143.456 220.564Z" fill="#90CAF9"/>
</g>
<g style="mix-blend-mode:multiply">
<path d="M111.884 146.49C110.193 148.367 106.836 152.185 103.64 156.238L122.516 175.426L128.734 172.939L111.884 146.49Z" fill="#90CAF9"/>
</g>
<path d="M112.991 145.271C112.991 145.271 101.8 157.37 97.5842 164.893C96.3342 167.18 95.3217 169.588 94.5625 172.081L117.07 146.079C115.74 145.676 114.374 145.406 112.991 145.271V145.271Z" fill="#263238"/>
<g style="mix-blend-mode:multiply">
<path d="M90.9937 188.121L115.416 196.154L145.073 192.747C144.608 185.359 142.967 178.093 140.211 171.222L116.299 180.81L94.9231 171.123C93.1752 176.679 91.8615 182.362 90.9937 188.121V188.121Z" fill="#90CAF9"/>
</g>
<g style="mix-blend-mode:multiply">
<path d="M133.036 251.005C120.649 253.085 107.939 252.046 96.0545 247.983L90.0982 245.944L88.2454 260.866L95.0348 262.769C107.942 266.377 121.432 267.417 134.74 265.828L140.223 265.168C140.509 264.564 140.669 263.909 140.696 263.241C140.845 259.921 141.106 255.096 141.442 249.563L133.036 251.005Z" fill="#90CAF9"/>
</g>
<g style="mix-blend-mode:multiply">
<path d="M136.356 230.686C123.969 232.774 111.256 231.731 99.3745 227.652L91.7892 225.053C91.9774 227.762 91.9399 230.483 91.6773 233.186L90.7944 240.361L98.3549 242.475C111.257 246.087 124.743 247.131 138.047 245.546L141.778 245.098C142.088 240.124 142.449 234.827 142.835 229.592L136.356 230.686Z" fill="#90CAF9"/>
</g>
<path d="M19.6934 178.102L43.7368 197.433L44.7731 196.144L20.7297 176.813L19.6934 178.102Z" fill="#263238"/>
<path d="M124.568 158.688C124.568 158.688 133.384 164.694 133.583 178.883C133.67 185.1 133.024 190.907 131.594 201.091C130.163 211.276 121.285 244.439 114.371 248.468C107.457 252.497 96.726 244.887 96.726 244.887L44.8226 210.43L32.2758 200.295L26.0583 188.557L28.0106 184.826L43.318 196.565L35.0737 188.942L36.6902 186.891L39.6746 188.967L48.379 192.225L50.2816 204.66L52.9675 206.501L102.62 224.643C102.62 224.643 101.998 197.92 102.458 192.81C102.919 187.699 103.553 174.854 109.024 165.54" fill="white"/>
<g style="mix-blend-mode:multiply" opacity="0.5">
<path d="M102.272 204.449C102.272 213.675 102.583 224.643 102.583 224.643L52.9801 206.575L50.2941 204.735L48.3916 192.3L39.6871 189.042L36.7152 186.928L35.0987 188.98L43.3181 196.565L28.0108 184.826L26.158 188.495L32.3754 200.233L44.9222 210.43L48.0807 212.531L116.659 234.628L102.272 204.449Z" fill="#90CAF9"/>
</g>
<path d="M124.568 158.688C124.568 158.688 133.384 164.694 133.583 178.883C133.67 185.1 133.024 190.907 131.594 201.091C130.163 211.276 121.285 244.439 114.371 248.468C107.457 252.497 96.726 244.887 96.726 244.887L44.8226 210.43L32.2758 200.295L26.0583 188.557L28.0106 184.826L43.318 196.565L35.0737 188.942L36.6902 186.891L39.6746 188.967L48.379 192.225L50.2816 204.66L52.9675 206.501L102.62 224.643C102.62 224.643 101.998 197.92 102.458 192.81C102.919 187.699 103.553 174.854 109.024 165.54" stroke="#263238" stroke-width="1.00396" stroke-miterlimit="10"/>
<path d="M102.62 224.643L121.571 238.321L126.483 229.617C126.483 229.617 129.877 226.943 130.375 224.929C130.872 222.914 130.238 219.644 130.748 217.63C131.258 215.615 133.794 213.725 134.031 208.851C134.267 203.976 134.031 199.91 134.031 199.91C134.031 199.91 138.134 183.036 137.686 175.699C137.239 168.362 130.163 155.393 124.493 155.107C118.823 154.821 111.449 155.679 105.729 164.334C100.009 172.988 101.178 198.256 100.282 199.835C99.3869 201.415 100.63 209.211 100.63 209.211C100.133 209.582 99.7211 210.054 99.421 210.597C99.1208 211.139 98.9396 211.739 98.8895 212.357C98.79 214.384 100.979 219.371 100.979 219.371L102.62 224.643Z" fill="white" stroke="#263238" stroke-width="1.00396" stroke-miterlimit="10"/>
<g style="mix-blend-mode:multiply">
<path d="M100.78 193.344C100.819 195.514 100.657 197.683 100.295 199.823C99.4993 201.24 100.407 207.644 100.606 208.95C111.265 212.261 122.536 213.111 133.571 211.437C133.808 210.572 133.95 209.684 133.994 208.788C134.242 203.926 133.994 199.848 133.994 199.848C133.994 199.848 134.354 198.343 134.852 196.055C123.423 196.781 111.95 195.869 100.78 193.344V193.344Z" fill="#90CAF9"/>
</g>
<g style="mix-blend-mode:multiply">
<path d="M104.958 165.714C103.18 169.283 102.185 174.642 101.613 180.076C112.902 184.385 125.073 185.866 137.065 184.391C137.543 181.516 137.756 178.602 137.699 175.687C137.484 173.383 136.939 171.122 136.083 168.972C125.611 169.216 115.152 168.122 104.958 165.714V165.714Z" fill="#90CAF9"/>
</g>
<path d="M100.979 219.507L102.583 224.643L121.534 238.321L126.445 229.617C126.445 229.617 129.84 226.943 130.338 224.929C130.426 224.579 130.481 224.22 130.499 223.86C120.513 223.687 110.59 222.224 100.979 219.507V219.507Z" fill="#263238"/>
<path d="M114.695 465.271C114.695 465.271 115.117 454.502 117.182 438.76C119.246 423.017 114.284 400.659 113.451 396.929C112.618 393.198 113.874 384.917 113.041 382.007C112.208 379.097 108.179 366.687 110.554 352.287C112.929 337.888 114.856 299.824 114.856 299.824C114.856 299.824 108.875 294.962 107.122 288.633C105.368 282.304 106.711 280.314 106.711 280.314" stroke="#263238" stroke-width="1.00396" stroke-miterlimit="10"/>
<path d="M117.468 280.898L115.167 293.632" stroke="#263238" stroke-width="1.00396" stroke-miterlimit="10"/>
</g>
<defs>
<clipPath id="clip0_45_243">
<rect width="505" height="504" fill="white"/>
</clipPath>
</defs>
</svg>
